999
dxfrw 0.6.3
  0
SECTION
  2
HEADER
  9
$ACADVER
  1
AC1021
  9
$DWGCODEPAGE
  3
ANSI_1252
  9
$INSBASE
 10
0
 20
0
 30
0
  9
$EXTMIN
 10
0
 20
0
 30
0
  9
$EXTMAX
 10
420
 20
297
 30
0
  9
$LIMMIN
 10
0
 20
0
  9
$LIMMAX
 10
420
 20
297
  9
$ORTHOMODE
 70
    0
  9
$REGENMODE
 70
    1
  9
$FILLMODE
 70
    1
  9
$QTEXTMODE
 70
    0
  9
$MIRRTEXT
 70
    0
  9
$LTSCALE
 40
1
  9
$ATTMODE
 70
    1
  9
$TEXTSIZE
 40
2.5
  9
$TRACEWID
 40
1
  9
$TEXTSTYLE
  7
ISO Proportional
  9
$CLAYER
  8
0
  9
$CELTYPE
  6
ByLayer
  9
$CECOLOR
 62
  256
  9
$CELTSCALE
 40
1
  9
$DISPSILH
 70
    0
  9
$DIMSCALE
 40
1
  9
$DIMASZ
 40
2.5
  9
$DIMEXO
 40
0.625
  9
$DIMDLI
 40
3.75
  9
$DIMRND
 40
0
  9
$DIMDLE
 40
0
  9
$DIMEXE
 40
1.25
  9
$DIMTP
 40
0
  9
$DIMTM
 40
0
  9
$DIMTXT
 40
2.5
  9
$DIMCEN
 40
2.5
  9
$DIMTSZ
 40
0
  9
$DIMTOL
 70
    0
  9
$DIMLIM
 70
    0
  9
$DIMTIH
 70
    0
  9
$DIMTOH
 70
    0
  9
$DIMSE1
 70
    0
  9
$DIMSE2
 70
    0
  9
$DIMTAD
 70
    1
  9
$DIMZIN
 70
    8
  9
$DIMBLK
  1

  9
$DIMASO
 70
    1
  9
$DIMSHO
 70
    1
  9
$DIMPOST
  1

  9
$DIMAPOST
  1

  9
$DIMALT
 70
    0
  9
$DIMALTD
 70
    3
  9
$DIMALTF
 40
0.03937007874016
  9
$DIMLFAC
 40
1
  9
$DIMTOFL
 70
    1
  9
$DIMTVP
 40
0
  9
$DIMTIX
 70
    0
  9
$DIMSOXD
 70
    0
  9
$DIMSAH
 70
    0
  9
$DIMBLK1
  1

  9
$DIMBLK2
  1

  9
$DIMSTYLE
  2
ISO-25
  9
$DIMCLRD
 70
    0
  9
$DIMCLRE
 70
    0
  9
$DIMCLRT
 70
    0
  9
$DIMTFAC
 40
1
  9
$DIMGAP
 40
0.625
  9
$DIMJUST
 70
    0
  9
$DIMSD1
 70
    0
  9
$DIMSD2
 70
    0
  9
$DIMTOLJ
 70
    0
  9
$DIMTZIN
 70
    8
  9
$DIMALTZ
 70
    0
  9
$DIMALTTZ
 70
    0
  9
$DIMUPT
 70
    0
  9
$DIMDEC
 70
    2
  9
$DIMTDEC
 70
    2
  9
$DIMALTU
 70
    2
  9
$DIMALTTD
 70
    3
  9
$DIMTXSTY
  7
Standard
  9
$DIMAUNIT
 70
    0
  9
$DIMADEC
 70
    0
  9
$DIMALTRND
 40
0
  9
$DIMAZIN
 70
    0
  9
$DIMDSEP
 70
   44
  9
$DIMATFIT
 70
    3
  9
$DIMFRAC
 70
    0
  9
$DIMLDRBLK
  1

  9
$DIMLUNIT
 70
    2
  9
$DIMLWD
 70
   -2
  9
$DIMLWE
 70
   -2
  9
$DIMTMOVE
 70
    0
  9
$DIMFXL
 40
1
  9
$DIMFXLON
 70
    0
  9
$DIMJOGANG
 40
0.7853981633974483
  9
$DIMTFILL
 70
    0
  9
$DIMTFILLCLR
 70
    0
  9
$DIMARCSYM
 70
    0
  9
$DIMLTYPE
  6

  9
$DIMLTEX1
  6

  9
$DIMLTEX2
  6

  9
$LUNITS
 70
    2
  9
$LUPREC
 70
    4
  9
$SKETCHINC
 40
1
  9
$FILLETRAD
 40
0
  9
$AUNITS
 70
    0
  9
$AUPREC
 70
    0
  9
$MENU
  1
.
  9
$ELEVATION
 40
0
  9
$PELEVATION
 40
0
  9
$THICKNESS
 40
0
  9
$LIMCHECK
 70
    0
  9
$CHAMFERA
 40
0
  9
$CHAMFERB
 40
0
  9
$CHAMFERC
 40
0
  9
$CHAMFERD
 40
0
  9
$SKPOLY
 70
    0
  9
$USRTIMER
 70
    1
  9
$ANGBASE
 50
0
  9
$ANGDIR
 70
    0
  9
$PDMODE
 70
    0
  9
$PDSIZE
 40
0
  9
$PLINEWID
 40
0
  9
$SPLFRAME
 70
    0
  9
$SPLINETYPE
 70
    6
  9
$SPLINESEGS
 70
    8
  9
$HANDSEED
  5
20000
  9
$SURFTAB1
 70
    6
  9
$SURFTAB2
 70
    6
  9
$SURFTYPE
 70
    6
  9
$SURFU
 70
    6
  9
$SURFV
 70
    6
  9
$UCSBASE
  2

  9
$UCSNAME
  2

  9
$UCSORG
 10
0
 20
0
 30
0
  9
$UCSXDIR
 10
1
 20
0
 30
0
  9
$UCSYDIR
 10
0
 20
1
 30
0
  9
$UCSORTHOREF
  2

  9
$UCSORTHOVIEW
 70
    0
  9
$UCSORGTOP
 10
0
 20
0
 30
0
  9
$UCSORGBOTTOM
 10
0
 20
0
 30
0
  9
$UCSORGLEFT
 10
0
 20
0
 30
0
  9
$UCSORGRIGHT
 10
0
 20
0
 30
0
  9
$UCSORGFRONT
 10
0
 20
0
 30
0
  9
$UCSORGBACK
 10
0
 20
0
 30
0
  9
$PUCSBASE
  2

  9
$PUCSNAME
  2

  9
$PUCSORG
 10
0
 20
0
 30
0
  9
$PUCSXDIR
 10
1
 20
0
 30
0
  9
$PUCSYDIR
 10
0
 20
1
 30
0
  9
$PUCSORTHOREF
  2

  9
$PUCSORTHOVIEW
 70
    0
  9
$PUCSORGTOP
 10
0
 20
0
 30
0
  9
$PUCSORGBOTTOM
 10
0
 20
0
 30
0
  9
$PUCSORGLEFT
 10
0
 20
0
 30
0
  9
$PUCSORGRIGHT
 10
0
 20
0
 30
0
  9
$PUCSORGFRONT
 10
0
 20
0
 30
0
  9
$PUCSORGBACK
 10
0
 20
0
 30
0
  9
$USERI1
 70
    0
  9
$USERI2
 70
    0
  9
$USERI3
 70
    0
  9
$USERI4
 70
    0
  9
$USERI5
 70
    0
  9
$USERR1
 40
0
  9
$USERR2
 40
0
  9
$USERR3
 40
0
  9
$USERR4
 40
0
  9
$USERR5
 40
0
  9
$WORLDVIEW
 70
    1
  9
$SHADEDGE
 70
    3
  9
$SHADEDIF
 70
   70
  9
$TILEMODE
 70
    0
  9
$MAXACTVP
 70
   64
  9
$PINSBASE
 10
15.26389881577154
 20
10.79374980926513
 30
0
  9
$PLIMCHECK
 70
    0
  9
$PEXTMIN
 10
0
 20
0
 30
0
  9
$PEXTMAX
 10
420
 20
297
 30
0
  9
$GRIDMODE
 70
    1
  9
$SNAPSTYLE
 70
    0
  9
$PLIMMIN
 10
0.0121640849764617
 20
-0.0001614145763824
  9
$PLIMMAX
 10
420.0121640849764
 20
296.9998385854236
  9
$UNITMODE
 70
    0
  9
$VISRETAIN
 70
    1
  9
$PLINEGEN
 70
    0
  9
$PSLTSCALE
 70
    1
  9
$TREEDEPTH
 70
 3020
  9
$CMLSTYLE
  2
Standard
  9
$CMLJUST
 70
    0
  9
$CMLSCALE
 40
20
  9
$PROXYGRAPHICS
 70
    1
  9
$MEASUREMENT
 70
    1
  9
$CELWEIGHT
370
   -1
  9
$ENDCAPS
280
    0
  9
$JOINSTYLE
280
    0
  9
$LWDISPLAY
290
    0
  9
$INSUNITS
 70
    4
  9
$HYPERLINKBASE
  1

  9
$STYLESHEET
  1

  9
$XEDIT
290
    1
  9
$CEPSNTYPE
380
    0
  9
$PSTYLEMODE
290
    1
  9
$EXTNAMES
290
    1
  9
$PSVPSCALE
 40
0.9273147743559044
  9
$OLESTARTUP
290
    0
  9
$SORTENTS
280
  127
  9
$INDEXCTL
280
    0
  9
$HIDETEXT
280
    1
  9
$XCLIPFRAME
290
    0
  9
$HALOGAP
280
    0
  9
$OBSCOLOR
 70
  257
  9
$OBSLTYPE
280
    0
  9
$INTERSECTIONDISPLAY
280
    0
  9
$INTERSECTIONCOLOR
 70
  257
  9
$DIMASSOC
280
    2
  9
$PROJECTNAME
  1

  9
$CAMERADISPLAY
290
    0
  9
$LENSLENGTH
 40
50
  9
$CAMERAHEIGHT
 40
0
  9
$STEPSPERSEC
 40
2
  9
$STEPSIZE
 40
6
  9
$3DDWFPREC
 40
2
  9
$PSOLWIDTH
 40
5
  9
$PSOLHEIGHT
 40
80
  9
$LOFTANG1
 40
1.570796326794896
  9
$LOFTANG2
 40
1.570796326794896
  9
$LOFTMAG1
 40
0
  9
$LOFTMAG2
 40
0
  9
$LOFTPARAM
 70
    7
  9
$LOFTNORMALS
280
    1
  9
$LATITUDE
 40
37.795
  9
$LONGITUDE
 40
-122.394
  9
$NORTHDIRECTION
 40
0
  9
$TIMEZONE
 70
-8000
  9
$LIGHTGLYPHDISPLAY
280
    1
  9
$TILEMODELIGHTSYNCH
280
    1
  9
$SOLIDHIST
280
    0
  9
$SHOWHIST
280
    1
  9
$DWFFRAME
280
    2
  9
$DGNFRAME
280
    0
  9
$REALWORLDSCALE
290
    1
  9
$INTERFERECOLOR
 62
    1
  9
$CSHADOW
280
    0
  9
$SHADOWPLANELOCATION
 40
0
  0
ENDSEC
  0
SECTION
  2
CLASSES
  0
ENDSEC
  0
SECTION
  2
TABLES
  0
TABLE
  2
VPORT
  5
8
330
0
100
AcDbSymbolTable
 70
    1
  0
VPORT
  5
31
330
2
100
AcDbSymbolTableRecord
100
AcDbViewportTableRecord
  2
*ACTIVE
 70
    0
 10
0
 20
0
 11
1
 21
1
 12
268.9756809338522
 22
151.3891050583658
 13
0
 23
0
 14
10
 24
10
 15
10
 25
10
 16
0
 26
0
 36
1
 17
0
 27
0
 37
0
 40
308.556420233463
 41
2.125468164794007
 42
50
 43
0
 44
0
 50
0
 51
0
 71
    0
 72
  100
 73
    1
 74
    3
 75
    0
 76
    1
 77
    0
 78
    0
281
    0
 65
    1
110
0
120
0
130
0
111
1
121
0
131
0
112
0
122
1
132
0
 79
    0
146
0
348
10020
 60
    7
 61
    5
292
1
282
    1
141
0
142
0
 63
  250
421
3358443
  0
ENDTAB
  0
TABLE
  2
LTYPE
  5
5
330
0
100
AcDbSymbolTable
 70
    4
  0
LTYPE
  5
14
330
5
100
AcDbSymbolTableRecord
100
AcDbLinetypeTableRecord
  2
ByBlock
 70
    0
  3

 72
   65
 73
    0
 40
0
  0
LTYPE
  5
15
330
5
100
AcDbSymbolTableRecord
100
AcDbLinetypeTableRecord
  2
ByLayer
 70
    0
  3

 72
   65
 73
    0
 40
0
  0
LTYPE
  5
16
330
5
100
AcDbSymbolTableRecord
100
AcDbLinetypeTableRecord
  2
Continuous
 70
    0
  3
Solid line
 72
   65
 73
    0
 40
0
  0
LTYPE
  5
32
330
5
100
AcDbSymbolTableRecord
100
AcDbLinetypeTableRecord
  2
DOT
 70
    0
  3
Dot . . . . . . . . . . . . . . . . . . . . . .
 72
   65
 73
    2
 40
6.35
 49
0
 74
    0
 49
-6.35
 74
    0
  0
LTYPE
  5
33
330
5
100
AcDbSymbolTableRecord
100
AcDbLinetypeTableRecord
  2
DOTTINY
 70
    0
  3
Dot (.15x) .....................................
 72
   65
 73
    2
 40
0.9525
 49
0
 74
    0
 49
-0.9525
 74
    0
  0
LTYPE
  5
34
330
5
100
AcDbSymbolTableRecord
100
AcDbLinetypeTableRecord
  2
DOT2
 70
    0
  3
Dot (.5x) .....................................
 72
   65
 73
    2
 40
3.175
 49
0
 74
    0
 49
-3.175
 74
    0
  0
LTYPE
  5
35
330
5
100
AcDbSymbolTableRecord
100
AcDbLinetypeTableRecord
  2
DOTX2
 70
    0
  3
Dot (2x) .  .  .  .  .  .  .  .  .  .  .  .  .
 72
   65
 73
    2
 40
12.7
 49
0
 74
    0
 49
-12.7
 74
    0
  0
LTYPE
  5
36
330
5
100
AcDbSymbolTableRecord
100
AcDbLinetypeTableRecord
  2
DASHED
 70
    0
  3
Dashed _ _ _ _ _ _ _ _ _ _ _ _ _ _ _ _ _
 72
   65
 73
    2
 40
19.05
 49
12.7
 74
    0
 49
-6.35
 74
    0
  0
LTYPE
  5
37
330
5
100
AcDbSymbolTableRecord
100
AcDbLinetypeTableRecord
  2
DASHEDTINY
 70
    0
  3
Dashed (.15x) _ _ _ _ _ _ _ _ _ _ _ _ _ _ _ _ _
 72
   65
 73
    2
 40
2.8575
 49
1.905
 74
    0
 49
-0.9525
 74
    0
  0
LTYPE
  5
38
330
5
100
AcDbSymbolTableRecord
100
AcDbLinetypeTableRecord
  2
DASHED2
 70
    0
  3
Dashed (.5x) _ _ _ _ _ _ _ _ _ _ _ _ _ _ _ _ _
 72
   65
 73
    2
 40
9.524999999999999
 49
6.35
 74
    0
 49
-3.175
 74
    0
  0
LTYPE
  5
39
330
5
100
AcDbSymbolTableRecord
100
AcDbLinetypeTableRecord
  2
DASHEDX2
 70
    0
  3
Dashed (2x) ____  ____  ____  ____  ____  ___
 72
   65
 73
    2
 40
38.09999999999999
 49
25.4
 74
    0
 49
-12.7
 74
    0
  0
LTYPE
  5
3A
330
5
100
AcDbSymbolTableRecord
100
AcDbLinetypeTableRecord
  2
DASHDOT
 70
    0
  3
Dash dot __ . __ . __ . __ . __ . __ . __ . __
 72
   65
 73
    4
 40
25.4
 49
12.7
 74
    0
 49
-6.35
 74
    0
 49
0
 74
    0
 49
-6.35
 74
    0
  0
LTYPE
  5
3B
330
5
100
AcDbSymbolTableRecord
100
AcDbLinetypeTableRecord
  2
DASHDOTTINY
 70
    0
  3
Dash dot (.15x) _._._._._._._._._._._._._._._.
 72
   65
 73
    4
 40
3.81
 49
1.905
 74
    0
 49
-0.9525
 74
    0
 49
0
 74
    0
 49
-0.9525
 74
    0
  0
LTYPE
  5
3C
330
5
100
AcDbSymbolTableRecord
100
AcDbLinetypeTableRecord
  2
DASHDOT2
 70
    0
  3
Dash dot (.5x) _._._._._._._._._._._._._._._.
 72
   65
 73
    4
 40
12.7
 49
6.35
 74
    0
 49
-3.175
 74
    0
 49
0
 74
    0
 49
-3.175
 74
    0
  0
LTYPE
  5
3D
330
5
100
AcDbSymbolTableRecord
100
AcDbLinetypeTableRecord
  2
DASHDOTX2
 70
    0
  3
Dash dot (2x) ____  .  ____  .  ____  .  ___
 72
   65
 73
    4
 40
50.8
 49
25.4
 74
    0
 49
-12.7
 74
    0
 49
0
 74
    0
 49
-12.7
 74
    0
  0
LTYPE
  5
3E
330
5
100
AcDbSymbolTableRecord
100
AcDbLinetypeTableRecord
  2
DIVIDE
 70
    0
  3
Divide ____ . . ____ . . ____ . . ____ . . ____
 72
   65
 73
    6
 40
31.75
 49
12.7
 74
    0
 49
-6.35
 74
    0
 49
0
 74
    0
 49
-6.35
 74
    0
 49
0
 74
    0
 49
-6.35
 74
    0
  0
LTYPE
  5
3F
330
5
100
AcDbSymbolTableRecord
100
AcDbLinetypeTableRecord
  2
DIVIDETINY
 70
    0
  3
Divide (.15x) __..__..__..__..__..__..__..__.._
 72
   65
 73
    6
 40
4.7625
 49
1.905
 74
    0
 49
-0.9525
 74
    0
 49
0
 74
    0
 49
-0.9525
 74
    0
 49
0
 74
    0
 49
-0.9525
 74
    0
  0
LTYPE
  5
40
330
5
100
AcDbSymbolTableRecord
100
AcDbLinetypeTableRecord
  2
DIVIDE2
 70
    0
  3
Divide (.5x) __..__..__..__..__..__..__..__.._
 72
   65
 73
    6
 40
15.875
 49
6.35
 74
    0
 49
-3.175
 74
    0
 49
0
 74
    0
 49
-3.175
 74
    0
 49
0
 74
    0
 49
-3.175
 74
    0
  0
LTYPE
  5
41
330
5
100
AcDbSymbolTableRecord
100
AcDbLinetypeTableRecord
  2
DIVIDEX2
 70
    0
  3
Divide (2x) ________  .  .  ________  .  .  _
 72
   65
 73
    6
 40
63.5
 49
25.4
 74
    0
 49
-12.7
 74
    0
 49
0
 74
    0
 49
-12.7
 74
    0
 49
0
 74
    0
 49
-12.7
 74
    0
  0
LTYPE
  5
42
330
5
100
AcDbSymbolTableRecord
100
AcDbLinetypeTableRecord
  2
BORDER
 70
    0
  3
Border __ __ . __ __ . __ __ . __ __ . __ __ .
 72
   65
 73
    6
 40
44.45
 49
12.7
 74
    0
 49
-6.35
 74
    0
 49
12.7
 74
    0
 49
-6.35
 74
    0
 49
0
 74
    0
 49
-6.35
 74
    0
  0
LTYPE
  5
43
330
5
100
AcDbSymbolTableRecord
100
AcDbLinetypeTableRecord
  2
BORDERTINY
 70
    0
  3
Border (.15x) __.__.__.__.__.__.__.__.__.__.__.
 72
   65
 73
    6
 40
6.6675
 49
1.905
 74
    0
 49
-0.9525
 74
    0
 49
1.905
 74
    0
 49
-0.9525
 74
    0
 49
0
 74
    0
 49
-0.9525
 74
    0
  0
LTYPE
  5
44
330
5
100
AcDbSymbolTableRecord
100
AcDbLinetypeTableRecord
  2
BORDER2
 70
    0
  3
Border (.5x) __.__.__.__.__.__.__.__.__.__.__.
 72
   65
 73
    6
 40
22.225
 49
6.35
 74
    0
 49
-3.175
 74
    0
 49
6.35
 74
    0
 49
-3.175
 74
    0
 49
0
 74
    0
 49
-3.175
 74
    0
  0
LTYPE
  5
45
330
5
100
AcDbSymbolTableRecord
100
AcDbLinetypeTableRecord
  2
BORDERX2
 70
    0
  3
Border (2x) ____  ____  .  ____  ____  .  ___
 72
   65
 73
    6
 40
88.89999999999999
 49
25.4
 74
    0
 49
-12.7
 74
    0
 49
25.4
 74
    0
 49
-12.7
 74
    0
 49
0
 74
    0
 49
-12.7
 74
    0
  0
LTYPE
  5
46
330
5
100
AcDbSymbolTableRecord
100
AcDbLinetypeTableRecord
  2
CENTER
 70
    0
  3
Center ____ _ ____ _ ____ _ ____ _ ____ _ ____
 72
   65
 73
    4
 40
50.8
 49
31.75
 74
    0
 49
-6.35
 74
    0
 49
6.35
 74
    0
 49
-6.35
 74
    0
  0
LTYPE
  5
47
330
5
100
AcDbSymbolTableRecord
100
AcDbLinetypeTableRecord
  2
CENTERTINY
 70
    0
  3
Center (.15x) ___ _ ___ _ ___ _ ___ _ ___ _ ___
 72
   65
 73
    4
 40
7.619999999999999
 49
4.7625
 74
    0
 49
-0.9525
 74
    0
 49
0.9525
 74
    0
 49
-0.9525
 74
    0
  0
LTYPE
  5
48
330
5
100
AcDbSymbolTableRecord
100
AcDbLinetypeTableRecord
  2
CENTER2
 70
    0
  3
Center (.5x) ___ _ ___ _ ___ _ ___ _ ___ _ ___
 72
   65
 73
    4
 40
28.575
 49
19.05
 74
    0
 49
-3.175
 74
    0
 49
3.175
 74
    0
 49
-3.175
 74
    0
  0
LTYPE
  5
49
330
5
100
AcDbSymbolTableRecord
100
AcDbLinetypeTableRecord
  2
CENTERX2
 70
    0
  3
Center (2x) ________  __  ________  __  _____
 72
   65
 73
    4
 40
101.6
 49
63.5
 74
    0
 49
-12.7
 74
    0
 49
12.7
 74
    0
 49
-12.7
 74
    0
  0
ENDTAB
  0
TABLE
  2
LAYER
  5
2
330
0
100
AcDbSymbolTable
 70
    1
  0
LAYER
  5
10
330
2
100
AcDbSymbolTableRecord
100
AcDbLayerTableRecord
  2
0
 70
    0
 62
    7
  6
CONTINUOUS
370
   -3
390
F
  0
LAYER
  5
4A
330
2
100
AcDbSymbolTableRecord
100
AcDbLayerTableRecord
  2
Title Block
 70
    0
 62
    7
  6
CONTINUOUS
370
   -3
390
F
  0
ENDTAB
  0
TABLE
  2
STYLE
  5
3
330
0
100
AcDbSymbolTable
 70
    3
  0
STYLE
  5
4B
330
2
100
AcDbSymbolTableRecord
100
AcDbTextStyleTableRecord
  2
ISO Proportional
 70
    0
 40
0
 41
1
 50
0
 71
    0
 42
1
  3
ISO Proportional
  4

  0
STYLE
  5
4C
330
2
100
AcDbSymbolTableRecord
100
AcDbTextStyleTableRecord
  2
ACISOTS
 70
    0
 40
0
 41
1
 50
0
 71
    0
 42
1
  3
ACISOTS
  4

  0
STYLE
  5
4D
330
2
100
AcDbSymbolTableRecord
100
AcDbTextStyleTableRecord
  2
iso
 70
    0
 40
0
 41
1
 50
0
 71
    0
 42
1
  3
iso
  4

  0
STYLE
  5
4E
330
2
100
AcDbSymbolTableRecord
100
AcDbTextStyleTableRecord
  2
Standard
 70
    0
 40
0
 41
1
 50
0
 71
    0
 42
1
  3
txt
  4

  0
ENDTAB
  0
TABLE
  2
VIEW
  5
6
330
0
100
AcDbSymbolTable
 70
    0
  0
ENDTAB
  0
TABLE
  2
UCS
  5
7
330
0
100
AcDbSymbolTable
 70
    0
  0
ENDTAB
  0
TABLE
  2
APPID
  5
9
330
0
100
AcDbSymbolTable
 70
    1
  0
APPID
  5
12
330
9
100
AcDbSymbolTableRecord
100
AcDbRegAppTableRecord
  2
ACAD
 70
    0
  0
APPID
  5
4F
330
9
100
AcDbSymbolTableRecord
100
AcDbRegAppTableRecord
  2
LibreCad
 70
    0
  0
ENDTAB
  0
TABLE
  2
DIMSTYLE
  5
A
330
0
100
AcDbSymbolTable
 70
    1
100
AcDbDimStyleTable
 71
    1
  0
DIMSTYLE
105
50
330
A
100
AcDbSymbolTableRecord
100
AcDbDimStyleTableRecord
  2
Standard
 70
    0
 40
1
 41
2.5
 42
0.625
 43
0.38
 44
1.25
 45
0
 46
0
 47
0
 48
0
 49
1
140
2.5
141
0.09
142
0
143
25.4
144
1
145
0
146
1
147
0.625
148
0
 71
    0
 72
    0
 73
    0
 74
    1
 75
    0
 76
    0
 77
    0
 78
    8
 79
    0
170
    0
171
    2
172
    0
173
    0
174
    0
175
    0
176
    0
177
    0
178
    0
179
    0
271
    2
272
    4
273
    2
274
    2
275
    0
276
    0
277
    2
278
   44
279
    0
280
    0
281
    0
282
    0
283
    1
284
    0
285
    0
286
    0
288
    0
289
    3
340
4E
  0
ENDTAB
  0
TABLE
  2
BLOCK_RECORD
  5
1
330
0
100
AcDbSymbolTable
 70
    2
  0
BLOCK_RECORD
  5
1F
330
1
100
AcDbSymbolTableRecord
100
AcDbBlockTableRecord
  2
*Model_Space
 70
    0
280
    1
281
    0
  0
BLOCK_RECORD
  5
1E
330
1
100
AcDbSymbolTableRecord
100
AcDbBlockTableRecord
  2
*Paper_Space
 70
    0
280
    1
281
    0
  0
BLOCK_RECORD
  5
51
330
1
100
AcDbSymbolTableRecord
100
AcDbBlockTableRecord
  2
Title Block
 70
    0
280
    1
281
    0
  0
BLOCK_RECORD
  5
54
330
1
100
AcDbSymbolTableRecord
100
AcDbBlockTableRecord
  2
View Callout
 70
    0
280
    1
281
    0
  0
BLOCK_RECORD
  5
57
330
1
100
AcDbSymbolTableRecord
100
AcDbBlockTableRecord
  2
View Title
 70
    0
280
    1
281
    0
  0
BLOCK_RECORD
  5
5A
330
1
100
AcDbSymbolTableRecord
100
AcDbBlockTableRecord
  2
*T3
 70
    0
280
    1
281
    0
  0
ENDTAB
  0
ENDSEC
  0
SECTION
  2
BLOCKS
  0
BLOCK
  5
20
330
1F
100
AcDbEntity
  8
0
100
AcDbBlockBegin
  2
*Model_Space
 70
    0
 10
0
 20
0
 30
0
  3
*Model_Space
  1

  0
ENDBLK
  5
21
330
1F
100
AcDbEntity
  8
0
100
AcDbBlockEnd
  0
BLOCK
  5
1C
330
1B
100
AcDbEntity
  8
0
100
AcDbBlockBegin
  2
*Paper_Space
 70
    0
 10
0
 20
0
 30
0
  3
*Paper_Space
  1

  0
ENDBLK
  5
1D
330
1F
100
AcDbEntity
  8
0
100
AcDbBlockEnd
  0
BLOCK
  5
52
330
51
100
AcDbEntity
  8
0
100
AcDbBlockBegin
  2
Title Block
 70
    0
 10
0
 20
0
  3
Title Block
  1

  0
LINE
  5
5D
100
AcDbEntity
  8
Title Block
  6
ByLayer
 62
  256
370
   -1
100
AcDbLine
 10
11
 20
10
 11
407
 21
10
  0
LINE
  5
5E
100
AcDbEntity
  8
Title Block
  6
ByLayer
 62
  256
370
   -1
100
AcDbLine
 10
407
 20
284.23
 11
11
 21
284.23
  0
LINE
  5
5F
100
AcDbEntity
  8
Title Block
  6
ByLayer
 62
  256
370
   -1
100
AcDbLine
 10
159.5
 20
5.05
 11
258.5
 21
5.05
  0
LINE
  5
60
100
AcDbEntity
  8
Title Block
  6
ByLayer
 62
  256
370
   -1
100
AcDbLine
 10
206.525
 20
12.475
 11
211.475
 21
12.475
  0
LINE
  5
61
100
AcDbEntity
  8
Title Block
  6
ByLayer
 62
  256
370
   -1
100
AcDbLine
 10
211.475
 20
12.475
 11
209
 21
7.524999999999998
  0
LINE
  5
62
100
AcDbEntity
  8
Title Block
  6
ByLayer
 62
  256
370
   -1
100
AcDbLine
 10
11
 20
284.23
 11
11
 21
10
  0
LINE
  5
63
100
AcDbEntity
  8
Title Block
  6
ByLayer
 62
  256
370
   -1
100
AcDbLine
 10
13.475
 20
149.59
 11
13.475
 21
144.64
  0
LINE
  5
64
100
AcDbEntity
  8
Title Block
  6
ByLayer
 62
  256
370
   -1
100
AcDbLine
 10
8.524999999999999
 20
147.115
 11
13.475
 21
149.59
  0
LINE
  5
65
100
AcDbEntity
  8
Title Block
  6
ByLayer
 62
  256
370
   -1
100
AcDbLine
 10
0
 20
0
 11
0
 21
10
  0
LINE
  5
66
100
AcDbEntity
  8
Title Block
  6
ByLayer
 62
  256
370
   -1
100
AcDbLine
 10
0
 20
0
 11
10
 21
0
  0
TEXT
  5
67
100
AcDbEntity
  8
Title Block
  6
ByLayer
 62
  256
370
   -1
100
AcDbText
 10
8.524999999999999
 20
33.265
 30
0
 40
3.959999999999999
  1
F
 50
0
 41
1
 51
0
  7
ISO Proportional
 71
    0
 72
    4
 11
8.524999999999999
 21
33.265
 31
0
210
0
220
0
230
1
100
AcDbText
  0
TEXT
  5
68
100
AcDbEntity
  8
Title Block
  6
ByLayer
 62
  256
370
   -1
100
AcDbText
 10
35.75
 20
7.524999999999998
 30
0
 40
3.959999999999999
  1
1
 50
0
 41
1
 51
0
  7
ISO Proportional
 71
    0
 72
    4
 11
35.75
 21
7.524999999999998
 31
0
210
0
220
0
230
1
100
AcDbText
  0
LINE
  5
69
100
AcDbEntity
  8
Title Block
  6
ByLayer
 62
  256
370
   -1
100
AcDbLine
 10
60.5
 20
5.05
 11
60.5
 21
10
  0
LINE
  5
6A
100
AcDbEntity
  8
Title Block
  6
ByLayer
 62
  256
370
   -1
100
AcDbLine
 10
6.05
 20
147.115
 11
15.95
 21
147.115
  0
TEXT
  5
6B
100
AcDbEntity
  8
Title Block
  6
ByLayer
 62
  256
370
   -1
100
AcDbText
 10
8.524999999999999
 20
78.80499999999999
 30
0
 40
3.959999999999999
  1
E
 50
0
 41
1
 51
0
  7
ISO Proportional
 71
    0
 72
    4
 11
8.524999999999999
 21
78.80499999999999
 31
0
210
0
220
0
230
1
100
AcDbText
  0
LINE
  5
6C
100
AcDbEntity
  8
Title Block
  6
ByLayer
 62
  256
370
   -1
100
AcDbLine
 10
11
 20
56.035
 11
6.05
 21
56.035
  0
TEXT
  5
6D
100
AcDbEntity
  8
Title Block
  6
ByLayer
 62
  256
370
   -1
100
AcDbText
 10
8.524999999999999
 20
124.345
 30
0
 40
3.959999999999999
  1
D
 50
0
 41
1
 51
0
  7
ISO Proportional
 71
    0
 72
    4
 11
8.524999999999999
 21
124.345
 31
0
210
0
220
0
230
1
100
AcDbText
  0
LINE
  5
6E
100
AcDbEntity
  8
Title Block
  6
ByLayer
 62
  256
370
   -1
100
AcDbLine
 10
11
 20
101.575
 11
6.05
 21
101.575
  0
LINE
  5
6F
100
AcDbEntity
  8
Title Block
  6
ByLayer
 62
  256
370
   -1
100
AcDbLine
 10
13.475
 20
144.64
 11
8.524999999999999
 21
147.115
  0
TEXT
  5
70
100
AcDbEntity
  8
Title Block
  6
ByLayer
 62
  256
370
   -1
100
AcDbText
 10
134.75
 20
7.524999999999998
 30
0
 40
3.959999999999999
  1
3
 50
0
 41
1
 51
0
  7
ISO Proportional
 71
    0
 72
    4
 11
134.75
 21
7.524999999999998
 31
0
210
0
220
0
230
1
100
AcDbText
  0
TEXT
  5
71
100
AcDbEntity
  8
Title Block
  6
ByLayer
 62
  256
370
   -1
100
AcDbText
 10
85.25
 20
7.524999999999998
 30
0
 40
3.959999999999999
  1
2
 50
0
 41
1
 51
0
  7
ISO Proportional
 71
    0
 72
    4
 11
85.25
 21
7.524999999999998
 31
0
210
0
220
0
230
1
100
AcDbText
  0
LINE
  5
72
100
AcDbEntity
  8
Title Block
  6
ByLayer
 62
  256
370
   -1
100
AcDbLine
 10
110
 20
5.05
 11
110
 21
10
  0
LINE
  5
73
100
AcDbEntity
  8
Title Block
  6
ByLayer
 62
  256
370
   -1
100
AcDbLine
 10
209
 20
10
 11
209
 21
5.05
  0
LINE
  5
74
100
AcDbEntity
  8
Title Block
  6
ByLayer
 62
  256
370
   -1
100
AcDbLine
 10
159.5
 20
5.05
 11
159.5
 21
10
  0
LINE
  5
75
100
AcDbEntity
  8
Title Block
  6
ByLayer
 62
  256
370
   -1
100
AcDbLine
 10
169.4
 20
5.05
 11
169.4
 21
10
  0
LINE
  5
76
100
AcDbEntity
  8
Title Block
  6
ByLayer
 62
  256
370
   -1
100
AcDbLine
 10
179.3
 20
5.05
 11
179.3
 21
10
  0
LINE
  5
77
100
AcDbEntity
  8
Title Block
  6
ByLayer
 62
  256
370
   -1
100
AcDbLine
 10
189.2
 20
5.05
 11
189.2
 21
10
  0
LINE
  5
78
100
AcDbEntity
  8
Title Block
  6
ByLayer
 62
  256
370
   -1
100
AcDbLine
 10
199.1
 20
5.05
 11
199.1
 21
10
  0
LINE
  5
79
100
AcDbEntity
  8
Title Block
  6
ByLayer
 62
  256
370
   -1
100
AcDbLine
 10
209
 20
7.524999999999998
 11
206.525
 21
12.475
  0
LINE
  5
7A
100
AcDbEntity
  8
Title Block
  6
ByLayer
 62
  256
370
   -1
100
AcDbLine
 10
209
 20
10
 11
209
 21
14.95
  0
TEXT
  5
7B
100
AcDbEntity
  8
Title Block
  6
ByLayer
 62
  256
370
   -1
100
AcDbText
 10
8.524999999999999
 20
169.885
 30
0
 40
3.959999999999999
  1
C
 50
0
 41
1
 51
0
  7
ISO Proportional
 71
    0
 72
    4
 11
8.524999999999999
 21
169.885
 31
0
210
0
220
0
230
1
100
AcDbText
  0
LINE
  5
7C
100
AcDbEntity
  8
Title Block
  6
ByLayer
 62
  256
370
   -1
100
AcDbLine
 10
11
 20
192.655
 11
6.05
 21
192.655
  0
TEXT
  5
7D
100
AcDbEntity
  8
Title Block
  6
ByLayer
 62
  256
370
   -1
100
AcDbText
 10
8.524999999999999
 20
215.425
 30
0
 40
3.959999999999999
  1
B
 50
0
 41
1
 51
0
  7
ISO Proportional
 71
    0
 72
    4
 11
8.524999999999999
 21
215.425
 31
0
210
0
220
0
230
1
100
AcDbText
  0
LINE
  5
7E
100
AcDbEntity
  8
Title Block
  6
ByLayer
 62
  256
370
   -1
100
AcDbLine
 10
11
 20
238.195
 11
6.05
 21
238.195
  0
LINE
  5
7F
100
AcDbEntity
  8
Title Block
  6
ByLayer
 62
  256
370
   -1
100
AcDbLine
 10
0
 20
297
 11
0
 21
287
  0
TEXT
  5
80
100
AcDbEntity
  8
Title Block
  6
ByLayer
 62
  256
370
   -1
100
AcDbText
 10
8.524999999999999
 20
260.965
 30
0
 40
3.959999999999999
  1
A
 50
0
 41
1
 51
0
  7
ISO Proportional
 71
    0
 72
    4
 11
8.524999999999999
 21
260.965
 31
0
210
0
220
0
230
1
100
AcDbText
  0
LINE
  5
81
100
AcDbEntity
  8
Title Block
  6
ByLayer
 62
  256
370
   -1
100
AcDbLine
 10
10
 20
297
 11
0
 21
297
  0
LINE
  5
82
100
AcDbEntity
  8
Title Block
  6
ByLayer
 62
  256
370
   -1
100
AcDbLine
 10
60.5
 20
284.23
 11
60.5
 21
289.18
  0
TEXT
  5
83
100
AcDbEntity
  8
Title Block
  6
ByLayer
 62
  256
370
   -1
100
AcDbText
 10
35.75
 20
286.705
 30
0
 40
3.959999999999999
  1
1
 50
0
 41
1
 51
0
  7
ISO Proportional
 71
    0
 72
    4
 11
35.75
 21
286.705
 31
0
210
0
220
0
230
1
100
AcDbText
  0
LINE
  5
84
100
AcDbEntity
  8
Title Block
  6
ByLayer
 62
  256
370
   -1
100
AcDbLine
 10
110
 20
284.23
 11
110
 21
289.18
  0
TEXT
  5
85
100
AcDbEntity
  8
Title Block
  6
ByLayer
 62
  256
370
   -1
100
AcDbText
 10
85.25
 20
286.705
 30
0
 40
3.959999999999999
  1
2
 50
0
 41
1
 51
0
  7
ISO Proportional
 71
    0
 72
    4
 11
85.25
 21
286.705
 31
0
210
0
220
0
230
1
100
AcDbText
  0
TEXT
  5
86
100
AcDbEntity
  8
Title Block
  6
ByLayer
 62
  256
370
   -1
100
AcDbText
 10
134.75
 20
286.705
 30
0
 40
3.959999999999999
  1
3
 50
0
 41
1
 51
0
  7
ISO Proportional
 71
    0
 72
    4
 11
134.75
 21
286.705
 31
0
210
0
220
0
230
1
100
AcDbText
  0
LINE
  5
87
100
AcDbEntity
  8
Title Block
  6
ByLayer
 62
  256
370
   -1
100
AcDbLine
 10
209
 20
279.28
 11
209
 21
289.18
  0
LINE
  5
88
100
AcDbEntity
  8
Title Block
  6
ByLayer
 62
  256
370
   -1
100
AcDbLine
 10
159.5
 20
284.23
 11
159.5
 21
289.18
  0
TEXT
  5
89
100
AcDbEntity
  8
Title Block
  6
ByLayer
 62
  256
370
   -1
100
AcDbText
 10
184.25
 20
286.705
 30
0
 40
3.959999999999999
  1
4
 50
0
 41
1
 51
0
  7
ISO Proportional
 71
    0
 72
    4
 11
184.25
 21
286.705
 31
0
210
0
220
0
230
1
100
AcDbText
  0
LINE
  5
8A
100
AcDbEntity
  8
Title Block
  6
ByLayer
 62
  256
370
   -1
100
AcDbLine
 10
407
 20
10
 11
407
 21
284.23
  0
LINE
  5
8B
100
AcDbEntity
  8
Title Block
  6
ByLayer
 62
  256
370
   -1
100
AcDbLine
 10
258.5
 20
5.05
 11
258.5
 21
10
  0
LINE
  5
8C
100
AcDbEntity
  8
Title Block
  6
ByLayer
 62
  256
370
   -1
100
AcDbLine
 10
218.9
 20
5.05
 11
218.9
 21
10
  0
LINE
  5
8D
100
AcDbEntity
  8
Title Block
  6
ByLayer
 62
  256
370
   -1
100
AcDbLine
 10
228.8
 20
5.05
 11
228.8
 21
10
  0
LINE
  5
8E
100
AcDbEntity
  8
Title Block
  6
ByLayer
 62
  256
370
   -1
100
AcDbLine
 10
238.7
 20
5.05
 11
238.7
 21
10
  0
LINE
  5
8F
100
AcDbEntity
  8
Title Block
  6
ByLayer
 62
  256
370
   -1
100
AcDbLine
 10
248.6
 20
5.05
 11
248.6
 21
10
  0
TEXT
  5
90
100
AcDbEntity
  8
Title Block
  6
ByLayer
 62
  256
370
   -1
100
AcDbText
 10
332.75
 20
7.524999999999998
 30
0
 40
3.959999999999999
  1
7
 50
0
 41
1
 51
0
  7
ISO Proportional
 71
    0
 72
    4
 11
332.75
 21
7.524999999999998
 31
0
210
0
220
0
230
1
100
AcDbText
  0
TEXT
  5
91
100
AcDbEntity
  8
Title Block
  6
ByLayer
 62
  256
370
   -1
100
AcDbText
 10
283.25
 20
7.524999999999998
 30
0
 40
3.959999999999999
  1
6
 50
0
 41
1
 51
0
  7
ISO Proportional
 71
    0
 72
    4
 11
283.25
 21
7.524999999999998
 31
0
210
0
220
0
230
1
100
AcDbText
  0
LINE
  5
92
100
AcDbEntity
  8
Title Block
  6
ByLayer
 62
  256
370
   -1
100
AcDbLine
 10
308
 20
5.05
 11
308
 21
10
  0
TEXT
  5
93
100
AcDbEntity
  8
Title Block
  6
ByLayer
 62
  256
370
   -1
100
AcDbText
 10
382.25
 20
7.524999999999998
 30
0
 40
3.959999999999999
  1
8
 50
0
 41
1
 51
0
  7
ISO Proportional
 71
    0
 72
    4
 11
382.25
 21
7.524999999999998
 31
0
210
0
220
0
230
1
100
AcDbText
  0
LINE
  5
94
100
AcDbEntity
  8
Title Block
  6
ByLayer
 62
  256
370
   -1
100
AcDbLine
 10
357.5
 20
5.05
 11
357.5
 21
10
  0
LINE
  5
95
100
AcDbEntity
  8
Title Block
  6
ByLayer
 62
  256
370
   -1
100
AcDbLine
 10
420
 20
0
 11
420
 21
10
  0
LINE
  5
96
100
AcDbEntity
  8
Title Block
  6
ByLayer
 62
  256
370
   -1
100
AcDbLine
 10
420
 20
0
 11
410
 21
0
  0
TEXT
  5
97
100
AcDbEntity
  8
Title Block
  6
ByLayer
 62
  256
370
   -1
100
AcDbText
 10
409.475
 20
33.265
 30
0
 40
3.959999999999999
  1
F
 50
0
 41
1
 51
0
  7
ISO Proportional
 71
    0
 72
    4
 11
409.475
 21
33.265
 31
0
210
0
220
0
230
1
100
AcDbText
  0
LINE
  5
98
100
AcDbEntity
  8
Title Block
  6
ByLayer
 62
  256
370
   -1
100
AcDbLine
 10
402.05
 20
147.115
 11
411.95
 21
147.115
  0
TEXT
  5
99
100
AcDbEntity
  8
Title Block
  6
ByLayer
 62
  256
370
   -1
100
AcDbText
 10
409.475
 20
78.80499999999999
 30
0
 40
3.959999999999999
  1
E
 50
0
 41
1
 51
0
  7
ISO Proportional
 71
    0
 72
    4
 11
409.475
 21
78.80499999999999
 31
0
210
0
220
0
230
1
100
AcDbText
  0
LINE
  5
9A
100
AcDbEntity
  8
Title Block
  6
ByLayer
 62
  256
370
   -1
100
AcDbLine
 10
411.95
 20
56.035
 11
407
 21
56.035
  0
TEXT
  5
9B
100
AcDbEntity
  8
Title Block
  6
ByLayer
 62
  256
370
   -1
100
AcDbText
 10
409.475
 20
124.345
 30
0
 40
3.959999999999999
  1
D
 50
0
 41
1
 51
0
  7
ISO Proportional
 71
    0
 72
    4
 11
409.475
 21
124.345
 31
0
210
0
220
0
230
1
100
AcDbText
  0
LINE
  5
9C
100
AcDbEntity
  8
Title Block
  6
ByLayer
 62
  256
370
   -1
100
AcDbLine
 10
411.95
 20
101.575
 11
407
 21
101.575
  0
LINE
  5
9D
100
AcDbEntity
  8
Title Block
  6
ByLayer
 62
  256
370
   -1
100
AcDbLine
 10
258.5
 20
284.23
 11
258.5
 21
289.18
  0
TEXT
  5
9E
100
AcDbEntity
  8
Title Block
  6
ByLayer
 62
  256
370
   -1
100
AcDbText
 10
233.75
 20
286.705
 30
0
 40
3.959999999999999
  1
5
 50
0
 41
1
 51
0
  7
ISO Proportional
 71
    0
 72
    4
 11
233.75
 21
286.705
 31
0
210
0
220
0
230
1
100
AcDbText
  0
LINE
  5
9F
100
AcDbEntity
  8
Title Block
  6
ByLayer
 62
  256
370
   -1
100
AcDbLine
 10
308
 20
284.23
 11
308
 21
289.18
  0
TEXT
  5
A0
100
AcDbEntity
  8
Title Block
  6
ByLayer
 62
  256
370
   -1
100
AcDbText
 10
283.25
 20
286.705
 30
0
 40
3.959999999999999
  1
6
 50
0
 41
1
 51
0
  7
ISO Proportional
 71
    0
 72
    4
 11
283.25
 21
286.705
 31
0
210
0
220
0
230
1
100
AcDbText
  0
TEXT
  5
A1
100
AcDbEntity
  8
Title Block
  6
ByLayer
 62
  256
370
   -1
100
AcDbText
 10
332.75
 20
286.705
 30
0
 40
3.959999999999999
  1
7
 50
0
 41
1
 51
0
  7
ISO Proportional
 71
    0
 72
    4
 11
332.75
 21
286.705
 31
0
210
0
220
0
230
1
100
AcDbText
  0
TEXT
  5
A2
100
AcDbEntity
  8
Title Block
  6
ByLayer
 62
  256
370
   -1
100
AcDbText
 10
409.475
 20
169.885
 30
0
 40
3.959999999999999
  1
C
 50
0
 41
1
 51
0
  7
ISO Proportional
 71
    0
 72
    4
 11
409.475
 21
169.885
 31
0
210
0
220
0
230
1
100
AcDbText
  0
LINE
  5
A3
100
AcDbEntity
  8
Title Block
  6
ByLayer
 62
  256
370
   -1
100
AcDbLine
 10
411.95
 20
192.655
 11
407
 21
192.655
  0
TEXT
  5
A4
100
AcDbEntity
  8
Title Block
  6
ByLayer
 62
  256
370
   -1
100
AcDbText
 10
409.475
 20
215.425
 30
0
 40
3.959999999999999
  1
B
 50
0
 41
1
 51
0
  7
ISO Proportional
 71
    0
 72
    4
 11
409.475
 21
215.425
 31
0
210
0
220
0
230
1
100
AcDbText
  0
LINE
  5
A5
100
AcDbEntity
  8
Title Block
  6
ByLayer
 62
  256
370
   -1
100
AcDbLine
 10
411.95
 20
238.195
 11
407
 21
238.195
  0
LINE
  5
A6
100
AcDbEntity
  8
Title Block
  6
ByLayer
 62
  256
370
   -1
100
AcDbLine
 10
357.5
 20
284.23
 11
357.5
 21
289.18
  0
TEXT
  5
A7
100
AcDbEntity
  8
Title Block
  6
ByLayer
 62
  256
370
   -1
100
AcDbText
 10
382.25
 20
286.705
 30
0
 40
3.959999999999999
  1
8
 50
0
 41
1
 51
0
  7
ISO Proportional
 71
    0
 72
    4
 11
382.25
 21
286.705
 31
0
210
0
220
0
230
1
100
AcDbText
  0
LINE
  5
A8
100
AcDbEntity
  8
Title Block
  6
ByLayer
 62
  256
370
   -1
100
AcDbLine
 10
420
 20
287
 11
420
 21
297
  0
TEXT
  5
A9
100
AcDbEntity
  8
Title Block
  6
ByLayer
 62
  256
370
   -1
100
AcDbText
 10
409.475
 20
260.965
 30
0
 40
3.959999999999999
  1
A
 50
0
 41
1
 51
0
  7
ISO Proportional
 71
    0
 72
    4
 11
409.475
 21
260.965
 31
0
210
0
220
0
230
1
100
AcDbText
  0
LINE
  5
AA
100
AcDbEntity
  8
Title Block
  6
ByLayer
 62
  256
370
   -1
100
AcDbLine
 10
420
 20
297
 11
410
 21
297
  0
LINE
  5
AB
100
AcDbEntity
  8
Title Block
  6
ByLayer
 62
  256
370
   -1
100
AcDbLine
 10
407
 20
10
 11
242
 21
10
  0
LINE
  5
AC
100
AcDbEntity
  8
Title Block
  6
ByLayer
 62
  256
370
   -1
100
AcDbLine
 10
407
 20
60
 11
242
 21
60
  0
LINE
  5
AD
100
AcDbEntity
  8
Title Block
  6
ByLayer
 62
  256
370
   -1
100
AcDbLine
 10
242.0000000000001
 20
16.38180881147821
 11
324.5
 21
16.38180881147821
  0
LINE
  5
AE
100
AcDbEntity
  8
Title Block
  6
ByLayer
 62
  256
370
   -1
100
AcDbLine
 10
242.0000000000001
 20
22.38180881147821
 11
324.5
 21
22.38180881147821
  0
LINE
  5
AF
100
AcDbEntity
  8
Title Block
  6
ByLayer
 62
  256
370
   -1
100
AcDbLine
 10
242.0000000000001
 20
28.38180881147821
 11
324.5
 21
28.38180881147821
  0
LINE
  5
B0
100
AcDbEntity
  8
Title Block
  6
ByLayer
 62
  256
370
   -1
100
AcDbLine
 10
242.0000000000001
 20
34.38180881147821
 11
324.5
 21
34.38180881147821
  0
LINE
  5
B1
100
AcDbEntity
  8
Title Block
  6
ByLayer
 62
  256
370
   -1
100
AcDbLine
 10
242.0000000000001
 20
40.38180881147821
 11
324.5
 21
40.38180881147821
  0
LINE
  5
B2
100
AcDbEntity
  8
Title Block
  6
ByLayer
 62
  256
370
   -1
100
AcDbLine
 10
242.0000000000001
 20
46.3818088114782
 11
324.5
 21
46.3818088114782
  0
LINE
  5
B3
100
AcDbEntity
  8
Title Block
  6
ByLayer
 62
  256
370
   -1
100
AcDbLine
 10
242.0000000000001
 20
52.38180881147821
 11
324.5
 21
52.38180881147821
  0
TEXT
  5
B4
100
AcDbEntity
  8
Title Block
  6
ByLayer
 62
  256
370
   25
100
AcDbText
 10
291.299406623493
 20
57.04325311043908
 30
0
 40
2
  1
FSCM NO
 50
0
 41
1
 51
0
  7
ACISOTS
 71
    0
210
0
220
0
230
1
100
AcDbText
  0
TEXT
  5
B5
100
AcDbEntity
  8
Title Block
  6
ByLayer
 62
  256
370
   25
100
AcDbText
 10
243.0279610407248
 20
48.13874720688841
 30
0
 40
2
  1
SIZE
 50
0
 41
1
 51
0
  7
ACISOTS
 71
    0
210
0
220
0
230
1
100
AcDbText
  0
TEXT
  5
B6
100
AcDbEntity
  8
Title Block
  6
ByLayer
 62
  256
370
   25
100
AcDbText
 10
243.0279610407247
 20
17.99270776761761
 30
0
 40
2
  1
REV
 50
0
 41
1
 51
0
  7
ACISOTS
 71
    0
210
0
220
0
230
1
100
AcDbText
  0
TEXT
  5
B7
100
AcDbEntity
  8
Title Block
  6
ByLayer
 62
  256
370
   25
100
AcDbText
 10
243.0279610407247
 20
11.99270776761761
 30
0
 40
2
  1
CONTRACT NO
 50
0
 41
0.6835185874663064
 51
0
  7
ACISOTS
 71
    0
210
0
220
0
230
1
100
AcDbText
  0
TEXT
  5
B8
100
AcDbEntity
  8
Title Block
  6
ByLayer
 62
  256
370
   25
100
AcDbText
 10
243.0279610407247
 20
30.07943282522899
 30
0
 40
2
  1
APPR.
 50
0
 41
1
 51
0
  7
ACISOTS
 71
    0
210
0
220
0
230
1
100
AcDbText
  0
TEXT
  5
B9
100
AcDbEntity
  8
Title Block
  6
ByLayer
 62
  256
370
   25
100
AcDbText
 10
243.0279610407247
 20
23.99270776761762
 30
0
 40
2
  1
ISSUED
 50
0
 41
1
 51
0
  7
ACISOTS
 71
    0
210
0
220
0
230
1
100
AcDbText
  0
TEXT
  5
BA
100
AcDbEntity
  8
Title Block
  6
ByLayer
 62
  256
370
   25
100
AcDbText
 10
243.0279610407247
 20
36.05202214927704
 30
0
 40
2
  1
CHECK
 50
0
 41
1
 51
0
  7
ACISOTS
 71
    0
210
0
220
0
230
1
100
AcDbText
  0
TEXT
  5
BB
100
AcDbEntity
  8
Title Block
  6
ByLayer
 62
  256
370
   25
100
AcDbText
 10
243.0279610407247
 20
42.13874720688841
 30
0
 40
2
  1
DRAWN
 50
0
 41
1
 51
0
  7
ACISOTS
 71
    0
210
0
220
0
230
1
100
AcDbText
  0
TEXT
  5
BC
100
AcDbEntity
  8
Title Block
  6
ByLayer
 62
  256
370
   25
100
AcDbText
 10
243.0279610407247
 20
57.04325311043908
 30
0
 40
2
  1
FILE NAME
 50
0
 41
1
 51
0
  7
ACISOTS
 71
    0
210
0
220
0
230
1
100
AcDbText
  0
LINE
  5
BD
100
AcDbEntity
  8
Title Block
  6
ByLayer
 62
  256
370
   -1
100
AcDbLine
 10
242
 20
10
 11
242.0000000000001
 21
60
  0
LINE
  5
BE
100
AcDbEntity
  8
Title Block
  6
ByLayer
 62
  256
370
   -1
100
AcDbLine
 10
290.1423062169807
 20
60
 11
290.1423062169807
 21
52.38180881147821
  0
LINE
  5
BF
100
AcDbEntity
  8
Title Block
  6
ByLayer
 62
  256
370
   -1
100
AcDbLine
 10
324.5
 20
39.01303461887045
 11
407
 21
39.01303461887045
  0
LINE
  5
C0
100
AcDbEntity
  8
Title Block
  6
ByLayer
 62
  256
370
   -1
100
AcDbLine
 10
324.5
 20
23.29272283977906
 11
407
 21
23.29272283977906
  0
TEXT
  5
C1
100
AcDbEntity
  8
Title Block
  6
ByLayer
 62
  256
370
   25
100
AcDbText
 10
367.032637599802
 20
57.11201390977937
 30
0
 40
2
  1
SCALE
 50
0
 41
1
 51
0
  7
ACISOTS
 71
    0
210
0
220
0
230
1
100
AcDbText
  0
LINE
  5
C2
100
AcDbEntity
  8
Title Block
  6
ByLayer
 62
  256
370
   -1
100
AcDbLine
 10
407
 20
50.3481025273627
 11
324.5
 21
50.3481025273627
  0
TEXT
  5
C3
100
AcDbEntity
  8
Title Block
  6
ByLayer
 62
  256
370
   25
100
AcDbText
 10
325.4527401539012
 20
57.11201390977937
 30
0
 40
2
  1
SHEET
 50
0
 41
1
 51
0
  7
ACISOTS
 71
    0
210
0
220
0
230
1
100
AcDbText
  0
LINE
  5
C4
100
AcDbEntity
  8
Title Block
  6
ByLayer
 62
  256
370
   -1
100
AcDbLine
 10
324.5
 20
10
 11
324.5
 21
60
  0
LINE
  5
C5
100
AcDbEntity
  8
Title Block
  6
ByLayer
 62
  256
370
   -1
100
AcDbLine
 10
365.75
 20
50.3481025273627
 11
365.75
 21
60
  0
LINE
  5
C6
100
AcDbEntity
  8
Title Block
  6
ByLayer
 62
  256
370
   -1
100
AcDbLine
 10
407
 20
9.999999999999773
 11
407.0000000000001
 21
60
  0
MTEXT
  5
C7
100
AcDbEntity
  8
Title Block
  6
ByLayer
 62
  256
370
   -1
100
AcDbMText
 10
324.880313373114
 20
21.40915375927784
 30
0
 40
2
 41
10.77777777777803
 71
    1
 72
    5
  1
DWG NO
  7
ACISOTS
210
0
220
0
230
1
 50
0
 73
    1
 44
1
  0
ENDBLK
  5
53
330
51
100
AcDbEntity
  8
0
100
AcDbBlockEnd
  0
BLOCK
  5
55
330
54
100
AcDbEntity
  8
0
100
AcDbBlockBegin
  2
View Callout
 70
    0
 10
0
 20
0
  3
View Callout
  1

  0
ENDBLK
  5
56
330
54
100
AcDbEntity
  8
0
100
AcDbBlockEnd
  0
BLOCK
  5
58
330
57
100
AcDbEntity
  8
0
100
AcDbBlockBegin
  2
View Title
 70
    0
 10
0
 20
0
  3
View Title
  1

  0
ENDBLK
  5
59
330
57
100
AcDbEntity
  8
0
100
AcDbBlockEnd
  0
BLOCK
  5
5B
330
5A
100
AcDbEntity
  8
0
100
AcDbBlockBegin
  2
*T3
 70
    0
 10
0
 20
0
  3
*T3
  1

  0
MTEXT
  5
C8
100
AcDbEntity
  8
Title Block
  6
ByLayer
 62
    0
370
   -1
100
AcDbMText
 10
1.5
 20
-1.5
 30
0
 40
2.5
 41
9.44444444444456
 71
    1
 72
    5
  1
RevNo
  7
ISO Proportional
210
0
220
0
230
1
 50
0
 73
    1
 44
1
  0
MTEXT
  5
C9
100
AcDbEntity
  8
Title Block
  6
ByLayer
 62
    0
370
   -1
100
AcDbMText
 10
13.5
 20
-1.5
 30
0
 40
2.5
 41
22.15373020783966
 71
    1
 72
    5
  1
Revision note
  7
ISO Proportional
210
0
220
0
230
1
 50
0
 73
    1
 44
1
  0
MTEXT
  5
CA
100
AcDbEntity
  8
Title Block
  6
ByLayer
 62
    0
370
   -1
100
AcDbMText
 10
120.687142628203
 20
-1.5
 30
0
 40
2.5
 41
6.944444444444716
 71
    1
 72
    5
  1
Date
  7
ISO Proportional
210
0
220
0
230
1
 50
0
 73
    1
 44
1
  0
MTEXT
  5
CB
100
AcDbEntity
  8
Title Block
  6
ByLayer
 62
    0
370
   -1
100
AcDbMText
 10
140.687142628203
 20
-1.5
 30
0
 40
2.5
 41
15.27777724777298
 71
    1
 72
    5
  1
Signature
  7
ISO Proportional
210
0
220
0
230
1
 50
0
 73
    1
 44
1
  0
MTEXT
  5
CC
100
AcDbEntity
  8
Title Block
  6
ByLayer
 62
    0
370
   -1
100
AcDbMText
 10
157.7075331763908
 20
-1.5
 30
0
 40
2.5
 41
12.50000000000077
 71
    1
 72
    5
  1
Checked
  7
ISO Proportional
210
0
220
0
230
1
 50
0
 73
    1
 44
1
  0
LINE
  5
CD
100
AcDbEntity
  8
Title Block
  6
ByLayer
 62
    0
370
   -2
100
AcDbLine
 10
0
 20
0
 11
12
 21
0
  0
LINE
  5
CE
100
AcDbEntity
  8
Title Block
  6
ByLayer
 62
    0
370
   -2
100
AcDbLine
 10
0
 20
0
 11
0
 21
-6.333333333333314
  0
LINE
  5
CF
100
AcDbEntity
  8
Title Block
  6
ByLayer
 62
    0
370
   -2
100
AcDbLine
 10
12
 20
0
 11
119.187142628203
 21
0
  0
LINE
  5
D0
100
AcDbEntity
  8
Title Block
  6
ByLayer
 62
    0
370
   -2
100
AcDbLine
 10
12
 20
0
 11
12
 21
-6.333333333333314
  0
LINE
  5
D1
100
AcDbEntity
  8
Title Block
  6
ByLayer
 62
    0
370
   -2
100
AcDbLine
 10
119.187142628203
 20
0
 11
139.187142628203
 21
0
  0
LINE
  5
D2
100
AcDbEntity
  8
Title Block
  6
ByLayer
 62
    0
370
   -2
100
AcDbLine
 10
119.187142628203
 20
0
 11
119.187142628203
 21
-6.333333333333314
  0
LINE
  5
D3
100
AcDbEntity
  8
Title Block
  6
ByLayer
 62
    0
370
   -2
100
AcDbLine
 10
139.187142628203
 20
0
 11
156.2075331763908
 21
0
  0
LINE
  5
D4
100
AcDbEntity
  8
Title Block
  6
ByLayer
 62
    0
370
   -2
100
AcDbLine
 10
139.187142628203
 20
0
 11
139.187142628203
 21
-6.333333333333314
  0
LINE
  5
D5
100
AcDbEntity
  8
Title Block
  6
ByLayer
 62
    0
370
   -2
100
AcDbLine
 10
156.2075331763908
 20
0
 11
171
 21
0
  0
LINE
  5
D6
100
AcDbEntity
  8
Title Block
  6
ByLayer
 62
    0
370
   -2
100
AcDbLine
 10
156.2075331763908
 20
0
 11
156.2075331763908
 21
-6.333333333333314
  0
LINE
  5
D7
100
AcDbEntity
  8
Title Block
  6
ByLayer
 62
    0
370
   -2
100
AcDbLine
 10
171
 20
0
 11
171
 21
-6.333333333333314
  0
LINE
  5
D8
100
AcDbEntity
  8
Title Block
  6
ByLayer
 62
    0
370
   -2
100
AcDbLine
 10
0
 20
-6.333333333333314
 11
12
 21
-6.333333333333314
  0
LINE
  5
D9
100
AcDbEntity
  8
Title Block
  6
ByLayer
 62
    0
370
   -2
100
AcDbLine
 10
0
 20
-12.66666666666663
 11
12
 21
-12.66666666666663
  0
LINE
  5
DA
100
AcDbEntity
  8
Title Block
  6
ByLayer
 62
    0
370
   -2
100
AcDbLine
 10
0
 20
-6.333333333333314
 11
0
 21
-12.66666666666663
  0
LINE
  5
DB
100
AcDbEntity
  8
Title Block
  6
ByLayer
 62
    0
370
   -2
100
AcDbLine
 10
12
 20
-6.333333333333314
 11
119.187142628203
 21
-6.333333333333314
  0
LINE
  5
DC
100
AcDbEntity
  8
Title Block
  6
ByLayer
 62
    0
370
   -2
100
AcDbLine
 10
12
 20
-12.66666666666663
 11
119.187142628203
 21
-12.66666666666663
  0
LINE
  5
DD
100
AcDbEntity
  8
Title Block
  6
ByLayer
 62
    0
370
   -2
100
AcDbLine
 10
12
 20
-6.333333333333314
 11
12
 21
-12.66666666666663
  0
LINE
  5
DE
100
AcDbEntity
  8
Title Block
  6
ByLayer
 62
    0
370
   -2
100
AcDbLine
 10
119.187142628203
 20
-6.333333333333314
 11
139.187142628203
 21
-6.333333333333314
  0
LINE
  5
DF
100
AcDbEntity
  8
Title Block
  6
ByLayer
 62
    0
370
   -2
100
AcDbLine
 10
119.187142628203
 20
-12.66666666666663
 11
139.187142628203
 21
-12.66666666666663
  0
LINE
  5
E0
100
AcDbEntity
  8
Title Block
  6
ByLayer
 62
    0
370
   -2
100
AcDbLine
 10
119.187142628203
 20
-6.333333333333314
 11
119.187142628203
 21
-12.66666666666663
  0
LINE
  5
E1
100
AcDbEntity
  8
Title Block
  6
ByLayer
 62
    0
370
   -2
100
AcDbLine
 10
139.187142628203
 20
-6.333333333333314
 11
156.2075331763908
 21
-6.333333333333314
  0
LINE
  5
E2
100
AcDbEntity
  8
Title Block
  6
ByLayer
 62
    0
370
   -2
100
AcDbLine
 10
139.187142628203
 20
-12.66666666666663
 11
156.2075331763908
 21
-12.66666666666663
  0
LINE
  5
E3
100
AcDbEntity
  8
Title Block
  6
ByLayer
 62
    0
370
   -2
100
AcDbLine
 10
139.187142628203
 20
-6.333333333333314
 11
139.187142628203
 21
-12.66666666666663
  0
LINE
  5
E4
100
AcDbEntity
  8
Title Block
  6
ByLayer
 62
    0
370
   -2
100
AcDbLine
 10
156.2075331763908
 20
-6.333333333333314
 11
171
 21
-6.333333333333314
  0
LINE
  5
E5
100
AcDbEntity
  8
Title Block
  6
ByLayer
 62
    0
370
   -2
100
AcDbLine
 10
156.2075331763908
 20
-12.66666666666663
 11
171
 21
-12.66666666666663
  0
LINE
  5
E6
100
AcDbEntity
  8
Title Block
  6
ByLayer
 62
    0
370
   -2
100
AcDbLine
 10
156.2075331763908
 20
-6.333333333333314
 11
156.2075331763908
 21
-12.66666666666663
  0
LINE
  5
E7
100
AcDbEntity
  8
Title Block
  6
ByLayer
 62
    0
370
   -2
100
AcDbLine
 10
171
 20
-6.333333333333314
 11
171
 21
-12.66666666666663
  0
ENDBLK
  5
5C
330
5A
100
AcDbEntity
  8
0
100
AcDbBlockEnd
  0
ENDSEC
  0
SECTION
  2
ENTITIES
  0
IMAGE
  5
EA
100
AcDbEntity
  8
0
  6
ByLayer
 62
  256
370
   -1
100
AcDbRasterImage
 10
107.4952819215008
 20
155.0737197314242
 30
0
 11
0.25
 21
0
 31
0
 12
1.530808498934192e-17
 22
0.25
 32
0
 13
287
 23
244
340
E8
 70
    1
280
    0
281
   50
282
   50
283
    0
360
E9
  0
INSERT
  5
EB
100
AcDbEntity
  8
0
  6
ByLayer
 62
  256
370
   -1
100
AcDbBlockReference
  2
Title Block
 10
0
 20
0
 30
0
 41
1
 42
1
 43
0
 50
0
 70
    1
 71
    1
 44
0
 45
0
  0
LINE
  5
EC
100
AcDbEntity
  8
0
  6
ByLayer
 62
  256
370
   -1
100
AcDbLine
 10
168.7334312258808
 20
197.7255378143212
 11
324.7772798320008
 21
197.7255378143212
  0
LINE
  5
ED
100
AcDbEntity
  8
0
  6
ByLayer
 62
  256
370
   -1
100
AcDbLine
 10
168.7985738772257
 20
192.2535551013937
 11
308.7772798320008
 21
192.2535551013937
  0
LINE
  5
EE
100
AcDbEntity
  8
0
  6
ByLayer
 62
  256
370
   -1
100
AcDbLine
 10
308.7772798320008
 20
192.2535551013937
 11
308.7772798320008
 21
178.3945211705282
  0
LWPOLYLINE
  5
EF
100
AcDbEntity
  8
0
  6
ByLayer
 62
  256
370
   -1
100
AcDbPolyline
 90
    4
 70
    1
 43
0
 10
95.53757050529101
 20
108.264692507762
 10
109.4445843124753
 20
108.264692507762
 10
109.4445843124753
 20
80.45066489339338
 10
95.53757050529101
 20
80.45066489339338
  0
LWPOLYLINE
  5
F0
100
AcDbEntity
  8
0
  6
ByLayer
 62
  256
370
   -1
100
AcDbPolyline
 90
    3
 70
    1
 43
0
 10
99.50322793757074
 20
80.45066489339338
 10
106.362023194214
 20
80.45066489339338
 10
106.362023194214
 20
80.45066489339338
  0
LWPOLYLINE
  5
F1
100
AcDbEntity
  8
0
  6
ByLayer
 62
  256
370
   -1
100
AcDbPolyline
 90
    3
 70
    1
 43
0
 10
100.0475767674631
 20
80.45066489339338
 10
108.5394185137833
 20
80.45066489339338
 10
108.5394185137833
 20
80.45066489339338
  0
LWPOLYLINE
  5
F2
100
AcDbEntity
  8
0
  6
ByLayer
 62
  256
370
   -1
100
AcDbPolyline
 90
    4
 70
    1
 43
0
 10
98.92806896390677
 20
80.45066489339338
 10
106.1477246401092
 20
80.45066489339338
 10
106.1477246401092
 20
41.62550402798858
 10
98.92806896390677
 20
41.62550402798858
  0
LINE
  5
F3
100
AcDbEntity
  8
0
  6
ByLayer
 62
  256
370
   -1
100
AcDbLine
 10
152.0041109687545
 20
175.6415548216376
 11
152.0041109687545
 21
115.1832734911119
  0
LINE
  5
F4
100
AcDbEntity
  8
0
  6
ByLayer
 62
  256
370
   -1
100
AcDbLine
 10
152.0041109687545
 20
115.1832734911119
 11
106.8125657738701
 21
115.1832734911119
  0
LINE
  5
F5
100
AcDbEntity
  8
0
  6
ByLayer
 62
  256
370
   -1
100
AcDbLine
 10
106.8125657738701
 20
115.1832734911119
 11
106.8125657738701
 21
108.8363889091875
  0
TEXT
  5
F6
100
AcDbEntity
  8
0
  6
ByLayer
 62
  256
370
   -1
100
AcDbText
 10
107.5168620088947
 20
114.9320627384174
 30
0
 40
2
  1
INJ- / ECU-INJ
 50
0
 41
1
 51
0
  7
iso
 71
    0
 11
107.5168620088947
 21
114.9320627384174
 31
0
210
0
220
0
230
1
100
AcDbText
 73
    1
  0
TEXT
  5
F7
100
AcDbEntity
  8
0
  6
ByLayer
 62
  256
370
   -1
100
AcDbText
 10
151.7738566511855
 20
148.8199719031583
 30
0
 40
2
  1
ECU-INJ / INJ-
 50
90
 41
1
 51
0
  7
iso
 71
    0
 11
151.7738566511855
 21
148.8199719031583
 31
0
210
0
220
0
230
1
100
AcDbText
 73
    1
  0
TEXT
  5
F8
100
AcDbEntity
  8
0
  6
ByLayer
 62
  256
370
   -1
100
AcDbText
 10
184.7772798320008
 20
197.3465060115815
 30
0
 40
2
  1
ECU-12V / BATT-V+
 50
0
 41
1
 51
0
  7
iso
 71
    0
 11
184.7772798320008
 21
197.3465060115815
 31
0
210
0
220
0
230
1
100
AcDbText
 73
    1
  0
TEXT
  5
F9
100
AcDbEntity
  8
0
  6
ByLayer
 62
  256
370
   -1
100
AcDbText
 10
184.7772798320008
 20
191.7273188319036
 30
0
 40
2
  1
ECU-0V / BATT-V-
 50
0
 41
1
 51
0
  7
iso
 71
    0
 11
184.7772798320008
 21
191.7273188319036
 31
0
210
0
220
0
230
1
100
AcDbText
 73
    1
  0
LINE
  5
FA
100
AcDbEntity
  8
0
  6
ByLayer
 62
  256
370
   -1
100
AcDbLine
 10
308.7772798320008
 20
178.3945211705282
 11
308.7772798320008
 21
165.2649156501276
  0
LINE
  5
FB
100
AcDbEntity
  8
0
  6
ByLayer
 62
  256
370
   -1
100
AcDbLine
 10
324.7772798320008
 20
178.4036227430925
 11
324.7772798320008
 21
165.2619046868699
  0
LWPOLYLINE
  5
FC
100
AcDbEntity
  8
0
  6
ByLayer
 62
  256
370
   -1
100
AcDbPolyline
 90
    4
 70
    1
 43
0
 10
305.5018507867388
 20
155.2324731627611
 10
327.4253185729232
 20
155.2324731627611
 10
327.4253185729232
 20
142.4304481781278
 10
305.5018507867388
 20
142.4304481781278
  0
LWPOLYLINE
  5
FD
100
AcDbEntity
  8
0
  6
ByLayer
 62
  256
370
   -1
100
AcDbPolyline
 90
    3
 70
    1
 43
0
 10
323.7483419148851
 20
155.2324731627611
 10
323.8056353637369
 20
155.2324731627611
 10
323.8056353637369
 20
155.2324731627611
  0
LWPOLYLINE
  5
FE
100
AcDbEntity
  8
0
  6
ByLayer
 62
  256
370
   -1
100
AcDbPolyline
 90
    4
 70
    1
 43
0
 10
323.4708432095427
 20
156.2552354810708
 10
325.868199522398
 20
156.2552354810708
 10
325.868199522398
 20
155.2324731627611
 10
323.4708432095427
 20
155.2324731627611
  0
LWPOLYLINE
  5
FF
100
AcDbEntity
  8
0
  6
ByLayer
 62
  256
370
   -1
100
AcDbPolyline
 90
    4
 70
    1
 43
0
 10
307.4708432095427
 20
156.2552354810708
 10
309.868199522398
 20
156.2552354810708
 10
309.868199522398
 20
155.2324731627611
 10
307.4708432095427
 20
155.2324731627611
  0
TEXT
  5
100
100
AcDbEntity
  8
0
  6
ByLayer
 62
  256
370
   -1
100
AcDbText
 10
315.9430654317649
 20
147.5885688144041
 30
0
 40
2
  1
12V BATT
 50
0
 41
1
 51
0
  7
iso
 71
    0
 72
    1
 11
315.9430654317649
 21
147.5885688144041
 31
0
210
0
220
0
230
1
100
AcDbText
 73
    1
  0
TEXT
  5
101
100
AcDbEntity
  8
0
  6
ByLayer
 62
  256
370
   -1
100
AcDbText
 10
324.1888785640087
 20
152.4771882003961
 30
0
 40
2
  1
+
 50
0
 41
1
 51
0
  7
iso
 71
    0
 11
324.1888785640087
 21
152.4771882003961
 31
0
210
0
220
0
230
1
100
AcDbText
 73
    1
  0
TEXT
  5
102
100
AcDbEntity
  8
0
  6
ByLayer
 62
  256
370
   -1
100
AcDbText
 10
308.3095688280894
 20
152.740517897987
 30
0
 40
2
  1
-
 50
0
 41
1
 51
0
  7
iso
 71
    0
 11
308.3095688280894
 21
152.740517897987
 31
0
210
0
220
0
230
1
100
AcDbText
 73
    1
  0
LINE
  5
103
100
AcDbEntity
  8
0
  6
ByLayer
 62
  256
370
   -1
100
AcDbLine
 10
308.7772798320008
 20
165.3542344820506
 11
308.7772798320008
 21
156.2531720295542
  0
LINE
  5
104
100
AcDbEntity
  8
0
  6
ByLayer
 62
  256
370
   -1
100
AcDbLine
 10
324.7772798320008
 20
165.2619046868699
 11
324.7772798320008
 21
156.2550383647838
  0
LINE
  5
105
100
AcDbEntity
  8
0
  6
ByLayer
 62
  256
370
   -1
100
AcDbLine
 10
156.5479960332841
 20
175.1801056930416
 11
156.5479960332841
 21
115.2044734440593
  0
LINE
  5
106
100
AcDbEntity
  8
0
  6
ByLayer
 62
  256
370
   -1
100
AcDbLine
 10
156.5479960332841
 20
115.2044734440593
 11
173.3743846473172
 21
115.2044734440593
  0
LWPOLYLINE
  5
107
100
AcDbEntity
  8
0
  6
ByLayer
 62
  256
370
   -1
100
AcDbPolyline
 90
    4
 70
    1
 43
0
 10
181.1308484819037
 20
107.3685200211002
 10
208.1941647932582
 20
107.3685200211002
 10
208.1941647932582
 20
77.56846385803563
 10
181.1308484819037
 20
77.56846385803563
  0
LWPOLYLINE
  5
108
100
AcDbEntity
  8
0
  6
ByLayer
 62
  256
370
   -1
100
AcDbPolyline
 90
    4
 70
    1
 43
0
 10
185.692081568087
 20
77.56846385803563
 10
193.5982189174715
 20
77.56846385803563
 10
193.5982189174715
 20
43.20717460878772
 10
185.692081568087
 20
43.20717460878772
  0
LWPOLYLINE
  5
109
100
AcDbEntity
  8
0
  6
ByLayer
 62
  256
370
   -1
100
AcDbPolyline
 90
    4
 70
    1
 43
0
 10
187.5165748025604
 20
42.90309240304218
 10
192.3818900944893
 20
42.90309240304218
 10
192.3818900944893
 20
27.09081770427322
 10
187.5165748025604
 20
27.09081770427322
  0
TEXT
  5
10A
100
AcDbEntity
  8
0
  6
ByLayer
 62
  256
370
   -1
100
AcDbText
 10
197.7259673808718
 20
31.8637242332146
 30
0
 40
2
  1
SPARK
 50
0
 41
1
 51
0
  7
iso
 71
    0
 72
    1
 11
197.7259673808718
 21
31.8637242332146
 31
0
210
0
220
0
230
1
100
AcDbText
 73
    1
  0
LINE
  5
10B
100
AcDbEntity
  8
0
  6
ByLayer
 62
  256
370
   -1
100
AcDbLine
 10
173.3743846473172
 20
115.2044734440593
 11
187.8612862547812
 21
115.2044734440593
  0
LINE
  5
10C
100
AcDbEntity
  8
0
  6
ByLayer
 62
  256
370
   -1
100
AcDbLine
 10
187.8612862547812
 20
115.2044734440593
 11
187.8612862547812
 21
107.368519795668
  0
TEXT
  5
10D
100
AcDbEntity
  8
0
  6
ByLayer
 62
  256
370
   -1
100
AcDbText
 10
160.8627114734077
 20
115.5648486982524
 30
0
 40
2
  1
IGN-SIG / ECU-IGN
 50
0
 41
1
 51
0
  7
iso
 71
    0
 11
160.8627114734077
 21
115.5648486982524
 31
0
210
0
220
0
230
1
100
AcDbText
 73
    1
  0
TEXT
  5
10E
100
AcDbEntity
  8
0
  6
ByLayer
 62
  256
370
   -1
100
AcDbText
 10
160.0009199765118
 20
142.6089502453261
 30
0
 40
2
  1
ECU-IGN / IGN-SIG
 50
90
 41
1
 51
0
  7
iso
 71
    0
 11
160.0009199765118
 21
142.6089502453261
 31
0
210
0
220
0
230
1
100
AcDbText
 73
    1
  0
TEXT
  5
10F
100
AcDbEntity
  8
0
  6
ByLayer
 62
  256
370
   -1
100
AcDbText
 10
102.7699750015601
 20
91.20716029273609
 30
0
 40
2
  1
INJECTOR
 50
0
 41
1
 51
0
  7
iso
 71
    0
 72
    1
 11
102.7699750015601
 21
91.20716029273609
 31
0
210
0
220
0
230
1
100
AcDbText
 73
    1
  0
TEXT
  5
110
100
AcDbEntity
  8
0
  6
ByLayer
 62
  256
370
   -1
100
AcDbText
 10
194.0208718843838
 20
92.00948801238135
 30
0
 40
2
  1
COIL
 50
0
 41
1
 51
0
  7
iso
 71
    0
 72
    1
 11
194.0208718843838
 21
92.00948801238135
 31
0
210
0
220
0
230
1
100
AcDbText
 73
    1
  0
LINE
  5
111
100
AcDbEntity
  8
0
  6
ByLayer
 62
  256
370
   -1
100
AcDbLine
 10
100.4519610591444
 20
108.264692507762
 11
100.4519610591444
 21
124.3500708417679
  0
LINE
  5
112
100
AcDbEntity
  8
0
  6
ByLayer
 62
  256
370
   -1
100
AcDbLine
 10
195.9076090674331
 20
124.3500708417679
 11
195.9076090674331
 21
107.3530405643589
  0
POINT
  5
113
100
AcDbEntity
  8
0
  6
ByLayer
 62
  256
370
   -1
100
AcDbPoint
 10
195.9076090674331
 20
124.2343783184292
  0
POINT
  5
114
100
AcDbEntity
  8
0
  6
ByLayer
 62
  256
370
   -1
100
AcDbPoint
 10
195.9076090674331
 20
122.328222259714
  0
LINE
  5
115
100
AcDbEntity
  8
0
  6
ByLayer
 62
  256
370
   -1
100
AcDbLine
 10
100.4519610591444
 20
124.3500708417679
 11
149.9681712504873
 21
124.3500708417679
  0
LINE
  5
116
100
AcDbEntity
  8
0
  6
ByLayer
 62
  256
370
   -1
100
AcDbLine
 10
195.9076090674331
 20
124.1159285400158
 11
157.935348211345
 21
124.1159285400158
  0
TEXT
  5
117
100
AcDbEntity
  8
0
  6
ByLayer
 62
  256
370
   -1
100
AcDbText
 10
107.5168620088947
 20
124.241472071933
 30
0
 40
2
  1
INJ+ / BATT-V+
 50
0
 41
1
 51
0
  7
iso
 71
    0
 11
107.5168620088947
 21
124.241472071933
 31
0
210
0
220
0
230
1
100
AcDbText
 73
    1
  0
LINE
  5
118
100
AcDbEntity
  8
0
  6
ByLayer
 62
  256
370
   -1
100
AcDbLine
 10
195.9076090674331
 20
123.8492391749186
 11
256.8413710427886
 21
123.8492391749186
  0
LINE
  5
119
100
AcDbEntity
  8
0
  6
ByLayer
 62
  256
370
   -1
100
AcDbLine
 10
256.8413710427886
 20
123.8492391749186
 11
256.8413710427886
 21
191.2065573187013
  0
LINE
  5
11A
100
AcDbEntity
  8
0
  6
CONTINUOUS
 62
  256
370
   -3
100
AcDbLine
 10
256.8170834779161
 20
197.7258987197509
 11
256.8170834779161
 21
193.6978987197509
  0
LINE
  5
11B
100
AcDbEntity
  8
0
  6
ByLayer
 62
  256
370
   -1
100
AcDbLine
 10
202.8688636670316
 20
107.3685200211002
 11
202.8688636670316
 21
119.0679215157265
  0
LINE
  5
11C
100
AcDbEntity
  8
0
  6
ByLayer
 62
  256
370
   -1
100
AcDbLine
 10
202.8688636670316
 20
119.0679215157265
 11
263.8628087475801
 21
119.0679215157265
  0
LINE
  5
11D
100
AcDbEntity
  8
0
  6
ByLayer
 62
  256
370
   -1
100
AcDbLine
 10
263.8628087475801
 20
119.0679215157265
 11
263.8628087475801
 21
192.2649025324361
  0
TEXT
  5
11E
100
AcDbEntity
  8
0
  6
ByLayer
 62
  256
370
   -1
100
AcDbText
 10
208.9419083492555
 20
123.5900318771922
 30
0
 40
2
  1
IGN-V+ / BATT-V+
 50
0
 41
1
 51
0
  7
iso
 71
    0
 11
208.9419083492555
 21
123.5900318771922
 31
0
210
0
220
0
230
1
100
AcDbText
 73
    1
  0
TEXT
  5
11F
100
AcDbEntity
  8
0
  6
ByLayer
 62
  256
370
   -1
100
AcDbText
 10
208.7504048031192
 20
119.0896985429892
 30
0
 40
2
  1
IGN-V- / BATT-V-
 50
0
 41
1
 51
0
  7
iso
 71
    0
 11
208.7504048031192
 21
119.0896985429892
 31
0
210
0
220
0
230
1
100
AcDbText
 73
    1
  0
TEXT
  5
120
100
AcDbEntity
  8
0
  6
ByLayer
 62
  256
370
   -1
100
AcDbText
 10
308.4213259552512
 20
158.8015485060137
 30
0
 40
2
  1
BATT-V-
 50
90
 41
1
 51
0
  7
iso
 71
    0
 11
308.4213259552512
 21
158.8015485060137
 31
0
210
0
220
0
230
1
100
AcDbText
 73
    1
  0
TEXT
  5
121
100
AcDbEntity
  8
0
  6
ByLayer
 62
  256
370
   -1
100
AcDbText
 10
324.4660802235919
 20
159.0830354230021
 30
0
 40
2
  1
BATT-V+
 50
90
 41
1
 51
0
  7
iso
 71
    0
 11
324.4660802235919
 21
159.0830354230021
 31
0
210
0
220
0
230
1
100
AcDbText
 73
    1
  0
ARC
  5
122
100
AcDbEntity
  8
0
  6
ByLayer
 62
  256
370
   -1
100
AcDbCircle
 10
153.8943937915893
 20
122.2810047428512
 40
4.438046638324601
100
AcDbArc
 50
24.42193366575739
 51
152.2113768316562
  0
ARC
  5
123
100
AcDbEntity
  8
0
  6
ByLayer
 62
  256
370
   -1
100
AcDbCircle
 10
256.2294944878624
 20
192.5338182616931
 40
1.461511043153539
100
AcDbArc
 50
66.29409686642714
 51
294.7500313053762
  0
LWPOLYLINE
  5
124
100
AcDbEntity
  8
0
  6
ByLayer
 62
  256
370
   -1
100
AcDbPolyline
 90
    4
 70
    1
 43
0
 10
18.903326329961
 20
188.5041030610803
 10
50.02005844390226
 20
188.5041030610803
 10
50.02005844390226
 20
178.1318590230999
 10
18.903326329961
 20
178.1318590230999
  0
LINE
  5
125
100
AcDbEntity
  8
0
  6
ByLayer
 62
  256
370
   -1
100
AcDbLine
 10
50.02005844390226
 20
183.3238642499551
 11
110.7738810761006
 21
183.3238642499551
  0
TEXT
  5
126
100
AcDbEntity
  8
0
  6
ByLayer
 62
  256
370
   -1
100
AcDbText
 10
69.54747985938585
 20
183.8995814187271
 30
0
 40
2
  1
PULSER-SIG / ECU-CKP
 50
0
 41
1
 51
0
  7
iso
 71
    0
 11
69.54747985938585
 21
183.8995814187271
 31
0
210
0
220
0
230
1
100
AcDbText
 73
    1
  0
LINE
  5
127
100
AcDbEntity
  8
0
  6
ByLayer
 62
  256
370
   -1
100
AcDbLine
 10
34.73856685737641
 20
178.1318590230999
 11
34.73856685737641
 21
132.9688958211103
  0
LINE
  5
128
100
AcDbEntity
  8
0
  6
ByLayer
 62
  256
370
   -1
100
AcDbLine
 10
34.73856685737641
 20
132.9688958211103
 11
148.1380837377472
 21
132.9688958211103
  0
LINE
  5
129
100
AcDbEntity
  8
0
  6
ByLayer
 62
  256
370
   -1
100
AcDbLine
 10
160.8488595171387
 20
133.4584117239597
 11
252.9224542330373
 21
133.4584117239597
  0
LINE
  5
12A
100
AcDbEntity
  8
0
  6
ByLayer
 62
  256
370
   -1
100
AcDbLine
 10
263.8628087475801
 20
133.3980833860867
 11
259.3502328236367
 21
133.3980833860867
  0
ARC
  5
12B
100
AcDbEntity
  8
0
  6
ByLayer
 62
  256
370
   -1
100
AcDbCircle
 10
256.1512451444894
 20
135.0159639192889
 40
3.584837456712778
100
AcDbArc
 50
333.1721016440327
 51
205.752423335463
  0
ARC
  5
12C
100
AcDbEntity
  8
0
  6
ByLayer
 62
  256
370
   -1
100
AcDbCircle
 10
154.6862667268913
 20
133.0114744186408
 40
6.548321418217342
100
AcDbArc
 50
3.913605190251943
 51
180.3725521352704
  0
TEXT
  5
12D
100
AcDbEntity
  8
0
  6
ByLayer
 62
  256
370
   -1
100
AcDbText
 10
193.8255352309669
 20
36.72700045058477
 30
0
 40
2
  1
SPARK-V- / BATT-V-
 50
0
 41
1
 51
0
  7
iso
 71
    0
 11
193.8255352309669
 21
36.72700045058477
 31
0
210
0
220
0
230
1
100
AcDbText
 73
    1
  0
LINE
  5
12E
100
AcDbEntity
  8
0
  6
ByLayer
 62
  256
370
   -1
100
AcDbLine
 10
192.3818900944893
 20
35.85667009854754
 11
226.9347239387293
 21
35.85667009854754
  0
LINE
  5
12F
100
AcDbEntity
  8
0
  6
ByLayer
 62
  256
370
   -1
100
AcDbLine
 10
226.9347239387293
 20
35.85667009854754
 11
226.9347239387293
 21
119.0685838327583
  0
LWPOLYLINE
  5
130
100
AcDbEntity
  8
0
  6
ByLayer
 62
  256
370
   -1
100
AcDbPolyline
 90
    4
 70
    1
 43
0
 10
59.74530659334234
 20
257.5634280303538
 10
93.61666151240257
 20
257.5634280303538
 10
93.61666151240257
 20
247.6842828456279
 10
59.74530659334234
 20
247.6842828456279
  0
TEXT
  5
131
100
AcDbEntity
  8
0
  6
ByLayer
 62
  256
370
   -1
100
AcDbText
 10
74.50517672608498
 20
250.419663287007
 30
0
 40
2
  1
TPS
 50
0
 41
1
 51
0
  7
iso
 71
    0
 11
74.50517672608498
 21
250.419663287007
 31
0
210
0
220
0
230
1
100
AcDbText
 73
    1
  0
LINE
  5
132
100
AcDbEntity
  8
0
  6
ByLayer
 62
  256
370
   -1
100
AcDbLine
 10
64.9200969281989
 20
247.6842828456279
 11
64.92009692819889
 21
195.3130643644773
  0
LINE
  5
133
100
AcDbEntity
  8
0
  6
ByLayer
 62
  256
370
   -1
100
AcDbLine
 10
64.92009692819889
 20
195.3130643644773
 11
111.5060513157721
 21
195.3130643644773
  0
LINE
  5
134
100
AcDbEntity
  8
0
  6
ByLayer
 62
  256
370
   -1
100
AcDbLine
 10
74.79924211292482
 20
247.6842828456279
 11
74.7992421129248
 21
199.9258123543206
  0
LINE
  5
135
100
AcDbEntity
  8
0
  6
ByLayer
 62
  256
370
   -1
100
AcDbLine
 10
74.7992421129248
 20
199.9258123543206
 11
111.2579933775942
 21
199.9258123543206
  0
LINE
  5
136
100
AcDbEntity
  8
0
  6
ByLayer
 62
  256
370
   -1
100
AcDbLine
 10
85.14882278263769
 20
247.6842828456279
 11
85.14882278263768
 21
204.3122741643753
  0
LINE
  5
137
100
AcDbEntity
  8
0
  6
ByLayer
 62
  256
370
   -1
100
AcDbLine
 10
85.14882278263768
 20
204.3122741643753
 11
111.9695420906333
 21
204.3122741643753
  0
TEXT
  5
138
100
AcDbEntity
  8
0
  6
ByLayer
 62
  256
370
   -1
100
AcDbText
 10
64.35674096521838
 20
233.2275099978964
 30
0
 40
2
  1
TPS-5V
 50
90
 41
1
 51
0
  7
iso
 71
    0
 72
    1
 11
64.35674096521838
 21
233.2275099978964
 31
0
210
0
220
0
230
1
100
AcDbText
 73
    1
  0
TEXT
  5
139
100
AcDbEntity
  8
0
  6
ByLayer
 62
  256
370
   -1
100
AcDbText
 10
73.79823439138559
 20
232.2673581240489
 30
0
 40
2
  1
TPS-SIG
 50
90
 41
1
 51
0
  7
iso
 71
    0
 72
    1
 11
73.79823439138559
 21
232.2673581240489
 31
0
210
0
220
0
230
1
100
AcDbText
 73
    1
  0
TEXT
  5
13A
100
AcDbEntity
  8
0
  6
ByLayer
 62
  256
370
   -1
100
AcDbText
 10
85.00000625293991
 20
231.947307499433
 30
0
 40
2
  1
TPS-GND
 50
90
 41
1
 51
0
  7
iso
 71
    0
 72
    1
 11
85.00000625293991
 21
231.947307499433
 31
0
210
0
220
0
230
1
100
AcDbText
 73
    1
  0
LWPOLYLINE
  5
13B
100
AcDbEntity
  8
0
  6
ByLayer
 62
  256
370
   -1
100
AcDbPolyline
 90
    4
 70
    1
 43
0
 10
43.25655388303117
 20
188.5041030610803
 10
25.15182404589494
 20
188.5041030610803
 10
25.15182404589494
 20
191.4174126135194
 10
43.25655388303117
 20
191.4174126135194
  0
TEXT
  5
13C
100
AcDbEntity
  8
0
  6
ByLayer
 62
  256
370
   -1
100
AcDbText
 10
34.8547362440204
 20
182.402290613593
 30
0
 40
2
  1
PULSER
 50
0
 41
1
 51
0
  7
iso
 71
    0
 72
    1
 11
34.8547362440204
 21
182.402290613593
 31
0
210
0
220
0
230
1
100
AcDbText
 73
    1
  0
ARC
  5
13D
100
AcDbEntity
  8
0
  6
ByLayer
 62
  256
370
   -1
100
AcDbCircle
 10
76.56097544298183
 20
238.5782603956081
 40
25.33308762198444
100
AcDbArc
 50
48.54031554388104
 51
131.459684456119
  0
LWPOLYLINE
  5
13E
100
AcDbEntity
  8
0
  6
ByLayer
 62
  256
370
   -1
100
AcDbPolyline
 90
    4
 70
    1
 43
0
 10
183.9344609401905
 20
268.2953791157665
 10
200.1843099330268
 20
268.2953791157665
 10
200.1843099330268
 20
239.9445787452861
 10
183.9344609401905
 20
239.9445787452861
  0
ARC
  5
13F
100
AcDbEntity
  8
0
  6
ByLayer
 62
  256
370
   -1
100
AcDbCircle
 10
205.9171532163498
 20
254.1919998331762
 40
15.35755513637494
100
AcDbArc
 50
248.0812496675283
 51
113.3161390984386
  0
TEXT
  5
140
100
AcDbEntity
  8
0
  6
ByLayer
 62
  256
370
   -1
100
AcDbText
 10
201.482200310116
 20
252.6534027167709
 30
0
 40
2
  1
ST-LINK / V2
 50
0
 41
1
 51
0
  7
iso
 71
    0
 11
201.482200310116
 21
252.6534027167709
 31
0
210
0
220
0
230
1
100
AcDbText
 73
    1
  0
LINE
  5
141
100
AcDbEntity
  8
0
  6
ByLayer
 62
  256
370
   -1
100
AcDbLine
 10
324.7772798320008
 20
197.7255378143212
 11
324.7772798320008
 21
185.7765295809252
  0
CIRCLE
  5
142
100
AcDbEntity
  8
0
  6
ByLayer
 62
  256
370
   -1
100
AcDbCircle
 10
324.7772798320008
 20
185.7765295809252
 40
0
  0
CIRCLE
  5
143
100
AcDbEntity
  8
0
  6
ByLayer
 62
  256
370
   -1
100
AcDbCircle
 10
324.7772798320008
 20
185.7827172420714
 40
0.006187661146185519
  0
CIRCLE
  5
144
100
AcDbEntity
  8
0
  6
ByLayer
 62
  256
370
   -1
100
AcDbCircle
 10
324.7710921708546
 20
185.7827172420714
 40
0.5118001953855799
  0
CIRCLE
  5
145
100
AcDbEntity
  8
0
  6
ByLayer
 62
  256
370
   -1
100
AcDbCircle
 10
324.7710921708546
 20
178.3149859505151
 40
0.5118001953855799
  0
LINE
  5
146
100
AcDbEntity
  8
0
  6
ByLayer
 62
  256
370
   -1
100
AcDbLine
 10
324.7772798320008
 20
178.3372266655762
 11
327.1140830066147
 21
185.8270356383601
  0
LINE
  5
147
100
AcDbEntity
  8
0
  6
ByLayer
 62
  256
370
   -1
100
AcDbLine
 10
183.9344609401905
 20
264.8009765977583
 11
133.5189277067489
 21
264.8009765977583
  0
LINE
  5
148
100
AcDbEntity
  8
0
  6
ByLayer
 62
  256
370
   -1
100
AcDbLine
 10
133.5189277067489
 20
264.8009765977583
 11
133.5189277067489
 21
213.7015995581426
  0
LINE
  5
149
100
AcDbEntity
  8
0
  6
ByLayer
 62
  256
370
   -1
100
AcDbLine
 10
183.9344609401905
 20
259.2153309976494
 11
136.0880119611585
 21
259.2153309976494
  0
LINE
  5
14A
100
AcDbEntity
  8
0
  6
ByLayer
 62
  256
370
   -1
100
AcDbLine
 10
136.0880119611585
 20
259.2153309976494
 11
136.0880119611585
 21
213.3131879000017
  0
LINE
  5
14B
100
AcDbEntity
  8
0
  6
ByLayer
 62
  256
370
   -1
100
AcDbLine
 10
183.9344609401905
 20
253.215933871607
 11
138.3698188088289
 21
253.215933871607
  0
LINE
  5
14C
100
AcDbEntity
  8
0
  6
ByLayer
 62
  256
370
   -1
100
AcDbLine
 10
138.3698188088289
 20
253.215933871607
 11
138.3698188088289
 21
213.2391977176465
  0
LINE
  5
14D
100
AcDbEntity
  8
0
  6
ByLayer
 62
  256
370
   -1
100
AcDbLine
 10
183.9344609401905
 20
247.6842828456328
 11
140.6499829872797
 21
247.6842828456328
  0
LINE
  5
14E
100
AcDbEntity
  8
0
  6
ByLayer
 62
  256
370
   -1
100
AcDbLine
 10
140.6499829872797
 20
247.6842828456328
 11
140.6499829872797
 21
212.7950498364545
  0
TEXT
  5
14F
100
AcDbEntity
  8
0
  6
ByLayer
 62
  256
370
   -1
100
AcDbText
 10
173.5304148747646
 20
265.0612200021598
 30
0
 40
2
  1
VDD 3V3
 50
0
 41
1
 51
0
  7
iso
 71
    0
 72
    1
 11
173.5304148747646
 21
265.0612200021598
 31
0
210
0
220
0
230
1
100
AcDbText
 73
    1
  0
TEXT
  5
150
100
AcDbEntity
  8
0
  6
ByLayer
 62
  256
370
   -1
100
AcDbText
 10
173.6904401870725
 20
259.3003087590745
 30
0
 40
2
  1
SWD CLK
 50
0
 41
1
 51
0
  7
iso
 71
    0
 72
    1
 11
173.6904401870725
 21
259.3003087590745
 31
0
210
0
220
0
230
1
100
AcDbText
 73
    1
  0
TEXT
  5
151
100
AcDbEntity
  8
0
  6
ByLayer
 62
  256
370
   -1
100
AcDbText
 10
174.0104908116883
 20
253.3793722036814
 30
0
 40
2
  1
GND
 50
0
 41
1
 51
0
  7
iso
 71
    0
 72
    1
 11
174.0104908116883
 21
253.3793722036814
 31
0
210
0
220
0
230
1
100
AcDbText
 73
    1
  0
TEXT
  5
152
100
AcDbEntity
  8
0
  6
ByLayer
 62
  256
370
   -1
100
AcDbText
 10
174.0104908116883
 20
247.6184609605962
 30
0
 40
2
  1
SWD I/O
 50
0
 41
1
 51
0
  7
iso
 71
    0
 72
    1
 11
174.0104908116883
 21
247.6184609605962
 31
0
210
0
220
0
230
1
100
AcDbText
 73
    1
  0
LINE
  5
153
100
AcDbEntity
  8
0
  6
CONTINUOUS
 62
  256
370
   -3
100
AcDbLine
 10
221.261
 20
254.849
 11
304.935
 21
254.849
  0
TEXT
  5
154
100
AcDbEntity
  8
0
  6
ByLayer
 62
  256
370
   -1
100
AcDbText
 10
295.9635778049874
 20
254.9294156247171
 30
0
 40
2
  1
USB
 50
0
 41
1
 51
0
  7
iso
 71
    0
 72
    1
 11
295.9635778049874
 21
254.9294156247171
 31
0
210
0
220
0
230
1
100
AcDbText
 73
    1
  0
LINE
  5
155
100
AcDbEntity
  8
0
  6
ByLayer
 62
  256
370
   -1
100
AcDbLine
 10
162.3974739290951
 20
217.0126753523831
 11
162.3974739290951
 21
231.7241460011719
  0
LINE
  5
156
100
AcDbEntity
  8
0
  6
ByLayer
 62
  256
370
   -1
100
AcDbLine
 10
162.3974739290951
 20
231.7241460011719
 11
304.977682269093
 21
231.7241460011719
  0
LINE
  5
157
100
AcDbEntity
  8
0
  6
ByLayer
 62
  256
370
   -1
100
AcDbLine
 10
306.9092702205995
 20
231.7403708875695
 11
306.9092702205995
 21
231.7403708875695
  0
LINE
  5
158
100
AcDbEntity
  8
0
  6
ByLayer
 62
  256
370
   -1
100
AcDbLine
 10
306.9092702205995
 20
231.7403708875695
 11
306.9092702205995
 21
231.7403708875695
  0
LINE
  5
159
100
AcDbEntity
  8
0
  6
ByLayer
 62
  256
370
   -1
100
AcDbLine
 10
306.9092702205995
 20
231.7403708875695
 11
306.9092702205995
 21
231.7403708875695
  0
LINE
  5
15A
100
AcDbEntity
  8
0
  6
ByLayer
 62
  256
370
   -1
100
AcDbLine
 10
307.9259158075197
 20
229.9794890777329
 11
307.9259158075197
 21
233.5012526974061
  0
LINE
  5
15B
100
AcDbEntity
  8
0
  6
ByLayer
 62
  256
370
   -1
100
AcDbLine
 10
307.9259158075197
 20
233.5012526974061
 11
304.8759790467589
 21
231.7403708875695
  0
LINE
  5
15C
100
AcDbEntity
  8
0
  6
CONTINUOUS
 62
  256
370
   -3
100
AcDbLine
 10
304.8762702205995
 20
231.7403708875695
 11
307.9262702205995
 21
229.9793708875695
  0
LINE
  5
15D
100
AcDbEntity
  8
0
  6
ByLayer
 62
  256
370
   -1
100
AcDbLine
 10
306.7035024049523
 20
254.849
 11
306.7035024049523
 21
254.849
  0
LINE
  5
15E
100
AcDbEntity
  8
0
  6
ByLayer
 62
  256
370
   -1
100
AcDbLine
 10
306.7035024049523
 20
254.849
 11
306.7035024049523
 21
254.849
  0
LINE
  5
15F
100
AcDbEntity
  8
0
  6
ByLayer
 62
  256
370
   -1
100
AcDbLine
 10
306.7035024049523
 20
254.849
 11
306.7035024049523
 21
254.849
  0
LINE
  5
160
100
AcDbEntity
  8
0
  6
ByLayer
 62
  256
370
   -1
100
AcDbLine
 10
307.7201479918726
 20
253.0881181901634
 11
307.7201479918726
 21
256.6098818098366
  0
LINE
  5
161
100
AcDbEntity
  8
0
  6
ByLayer
 62
  256
370
   -1
100
AcDbLine
 10
307.7201479918726
 20
256.6098818098366
 11
304.6702112311118
 21
254.849
  0
LINE
  5
162
100
AcDbEntity
  8
0
  6
CONTINUOUS
 62
  256
370
   -3
100
AcDbLine
 10
304.6705024049523
 20
254.849
 11
307.7205024049523
 21
253.088
  0
TEXT
  5
163
100
AcDbEntity
  8
0
  6
ByLayer
 62
  256
370
   -1
100
AcDbText
 10
296.2162210056949
 20
231.8546699601014
 30
0
 40
2
  1
USB
 50
0
 41
1
 51
0
  7
iso
 71
    0
 72
    1
 11
296.2162210056949
 21
231.8546699601014
 31
0
210
0
220
0
230
1
100
AcDbText
 73
    1
  0
TEXT
  5
164
100
AcDbEntity
  8
0
  6
ByLayer
 62
  256
370
   -1
100
AcDbText
 10
39.86135423251291
 20
133.8878202275087
 30
0
 40
2
  1
PULSER-V- / BATT-V-
 50
0
 41
1
 51
0
  7
iso
 71
    0
 11
39.86135423251291
 21
133.8878202275087
 31
0
210
0
220
0
230
1
100
AcDbText
 73
    1
  0
TEXT
  5
165
100
AcDbEntity
  8
0
  6
ByLayer
 62
  256
370
   -1
100
AcDbText
 10
259.0809806265121
 20
53.76850493545897
 30
0
 40
2
  1
WIRING CUSTOM ECU
 50
0
 41
1
 51
0
  7
iso
 71
    0
 11
259.0809806265121
 21
53.76850493545897
 31
0
210
0
220
0
230
1
100
AcDbText
 73
    1
  0
TEXT
  5
166
100
AcDbEntity
  8
0
  6
ByLayer
 62
  256
370
   -1
100
AcDbText
 10
258.9209553142043
 20
47.36749244314242
 30
0
 40
2
  1
A4 ISO
 50
0
 41
1
 51
0
  7
iso
 71
    0
 11
258.9209553142043
 21
47.36749244314242
 31
0
210
0
220
0
230
1
100
AcDbText
 73
    1
  0
TEXT
  5
167
100
AcDbEntity
  8
0
  6
ByLayer
 62
  256
370
   -1
100
AcDbText
 10
259.2410059388201
 20
40.96647995082588
 30
0
 40
2
  1
ACHMADI ST MT
 50
0
 41
1
 51
0
  7
iso
 71
    0
 11
259.2410059388201
 21
40.96647995082588
 31
0
210
0
220
0
230
1
100
AcDbText
 73
    1
  0
TEXT
  5
168
100
AcDbEntity
  8
0
  6
ByLayer
 62
  256
370
   -1
100
AcDbText
 10
258.9209553142043
 20
34.72549277081725
 30
0
 40
2
  1
ACHMADI ST MT
 50
0
 41
1
 51
0
  7
iso
 71
    0
 11
258.9209553142043
 21
34.72549277081725
 31
0
210
0
220
0
230
1
100
AcDbText
 73
    1
  0
TEXT
  5
169
100
AcDbEntity
  8
0
  6
ByLayer
 62
  256
370
   -1
100
AcDbText
 10
257.8865764993694
 20
17.14105291862317
 30
0
 40
2
  1
A
 50
0
 41
1
 51
0
  7
iso
 71
    0
 11
257.8865764993694
 21
17.14105291862317
 31
0
210
0
220
0
230
1
100
AcDbText
 73
    1
  0
TEXT
  5
16A
100
AcDbEntity
  8
0
  6
ByLayer
 62
  256
370
   -1
100
AcDbText
 10
334.4306087971553
 20
51.29813193951522
 30
0
 40
2
  1
1 OF 1
 50
0
 41
1
 51
0
  7
iso
 71
    0
 11
334.4306087971553
 21
51.29813193951522
 31
0
210
0
220
0
230
1
100
AcDbText
 73
    1
  0
TEXT
  5
16B
100
AcDbEntity
  8
0
  6
ByLayer
 62
  256
370
   -1
100
AcDbText
 10
370.6338673163784
 20
50.88438041358124
 30
0
 40
2
  1
NONE
 50
0
 41
1
 51
0
  7
iso
 71
    0
 11
370.6338673163784
 21
50.88438041358124
 31
0
210
0
220
0
230
1
100
AcDbText
 73
    1
  0
ENDSEC
  0
SECTION
  2
OBJECTS
  0
DICTIONARY
  5
C
330
0
100
AcDbDictionary
281
    1
  3
ACAD_GROUP
350
D
  3
ACAD_IMAGE_DICT
350
16C
  0
DICTIONARY
  5
D
330
C
100
AcDbDictionary
281
    1
  0
IMAGEDEF_REACTOR
  5
E9
330
EA
100
AcDbRasterImageDefReactor
 90
    2
330
EA
  0
DICTIONARY
  5
16C
330
C
100
AcDbDictionary
281
    1
  3
brd
350
E8
  0
IMAGEDEF
  5
E8
102
{ACAD_REACTORS
330
E9
102
}
100
AcDbRasterImageDef
 90
    0
  1
plots/brd.svg
 10
287
 20
244
 11
1
 21
1
280
    1
281
    0
  0
PLOTSETTINGS
  5
16D
100
AcDbPlotSettings
  6
1x1
 40
5.793749809265136
 41
10.79374980926513
 42
5.793746948242187
 43
10.79376220703125
  0
ENDSEC
  0
EOF
